<svg width="18" height="18" viewBox="0 0 18 18" fill="none" xmlns="http://www.w3.org/2000/svg">
<path d="M7.816 15.216V13.398H5.818V11.832H7.816V10.698C7.24 10.578 6.718 10.338 6.25 9.978C5.794 9.606 5.428 9.156 5.152 8.628C4.888 8.088 4.756 7.506 4.756 6.882C4.756 6.186 4.936 5.55 5.296 4.974C5.656 4.386 6.13 3.918 6.718 3.57C7.318 3.21 7.966 3.03 8.662 3.03C9.37 3.03 10.018 3.21 10.606 3.57C11.206 3.918 11.68 4.386 12.028 4.974C12.388 5.55 12.568 6.186 12.568 6.882C12.568 7.494 12.436 8.07 12.172 8.61C11.908 9.138 11.548 9.588 11.092 9.96C10.636 10.332 10.108 10.578 9.508 10.698V11.832H11.38V13.398H9.508V15.216H7.816ZM8.662 9.186C9.082 9.186 9.466 9.084 9.814 8.88C10.162 8.664 10.438 8.382 10.642 8.034C10.846 7.686 10.948 7.302 10.948 6.882C10.948 6.474 10.846 6.102 10.642 5.766C10.438 5.43 10.162 5.166 9.814 4.974C9.466 4.77 9.082 4.668 8.662 4.668C8.254 4.668 7.876 4.77 7.528 4.974C7.18 5.166 6.898 5.43 6.682 5.766C6.478 6.102 6.376 6.474 6.376 6.882C6.376 7.302 6.478 7.686 6.682 8.034C6.898 8.382 7.18 8.664 7.528 8.88C7.876 9.084 8.254 9.186 8.662 9.186Z" fill="#CF5C5C"/>
</svg>
