<svg width="19" height="18" viewBox="0 0 19 18" fill="none" xmlns="http://www.w3.org/2000/svg">
<path d="M8.716 14C8.02 14 7.372 13.826 6.772 13.478C6.184 13.13 5.71 12.656 5.35 12.056C5.002 11.456 4.828 10.802 4.828 10.094C4.828 9.386 5.002 8.744 5.35 8.168C5.71 7.58 6.184 7.112 6.772 6.764C7.372 6.416 8.02 6.242 8.716 6.242C9.088 6.242 9.442 6.29 9.778 6.386C10.114 6.47 10.438 6.614 10.75 6.818L11.758 5.684L9.688 4.658L14.278 4.154L14.296 8.726L13.036 6.8L11.974 8.006C12.19 8.306 12.352 8.636 12.46 8.996C12.568 9.344 12.622 9.71 12.622 10.094C12.622 10.802 12.442 11.456 12.082 12.056C11.734 12.656 11.26 13.13 10.66 13.478C10.072 13.826 9.424 14 8.716 14ZM8.716 12.38C9.136 12.38 9.52 12.278 9.868 12.074C10.216 11.87 10.492 11.594 10.696 11.246C10.912 10.898 11.02 10.514 11.02 10.094C11.02 9.686 10.912 9.314 10.696 8.978C10.492 8.642 10.216 8.372 9.868 8.168C9.52 7.964 9.136 7.862 8.716 7.862C8.308 7.862 7.93 7.964 7.582 8.168C7.234 8.372 6.952 8.642 6.736 8.978C6.532 9.314 6.43 9.686 6.43 10.094C6.43 10.514 6.532 10.898 6.736 11.246C6.952 11.594 7.234 11.87 7.582 12.074C7.93 12.278 8.308 12.38 8.716 12.38Z" fill="#5C8ACF"/>
</svg>
