<svg width="27" height="34" viewBox="0 0 27 34" fill="none" xmlns="http://www.w3.org/2000/svg">
<path d="M2.73278 33.75L2.26849 27.25L23.7117 27.25L22.7832 33.75L2.73278 33.75Z" fill="#636363" stroke="black" stroke-width="0.5"/>
<path d="M2.25 29.75L2.25 20.25L23.75 20.25L23.75 29.75L2.25 29.75Z" fill="#C4C4C4" stroke="black" stroke-width="0.5"/>
<path d="M3 29L3 26.7143L5.05128 26.7143L5.05128 29L3 29Z" fill="#E4DFDF"/>
<path d="M3 26.1429L3 23.8571L5.05128 23.8571L5.05128 26.1429L3 26.1429Z" fill="#E4DFDF"/>
<path d="M3 23.2857L3 21L5.05128 21L5.05128 23.2857L3 23.2857Z" fill="#E4DFDF"/>
<path d="M5.5641 29L5.5641 26.7143L7.61538 26.7143L7.61538 29L5.5641 29Z" fill="#E4DFDF"/>
<path d="M5.5641 23.2857L5.5641 21L7.61538 21L7.61538 23.2857L5.5641 23.2857Z" fill="#E4DFDF"/>
<path d="M5.5641 26.1429L5.5641 23.8571L7.61538 23.8571L7.61538 26.1429L5.5641 26.1429Z" fill="#E4DFDF"/>
<path d="M8.12821 29L8.12821 26.7143L10.1795 26.7143L10.1795 29L8.12821 29Z" fill="#E4DFDF"/>
<path d="M8.12821 23.2857L8.12821 21L10.1795 21L10.1795 23.2857L8.12821 23.2857Z" fill="#E4DFDF"/>
<path d="M10.6923 29L10.6923 26.7143L12.7436 26.7143L12.7436 29L10.6923 29Z" fill="#E4DFDF"/>
<path d="M8.12821 26.1429L8.12821 23.8571L10.1795 23.8571L10.1795 26.1429L8.12821 26.1429Z" fill="#E4DFDF"/>
<path d="M10.6923 26.1429L10.6923 23.8571L12.7436 23.8571L12.7436 26.1429L10.6923 26.1429Z" fill="#E4DFDF"/>
<path d="M10.6923 23.2857L10.6923 21L12.7436 21L12.7436 23.2857L10.6923 23.2857Z" fill="#E4DFDF"/>
<path d="M13.2564 26.1429L13.2564 23.8571L15.3077 23.8571L15.3077 26.1429L13.2564 26.1429Z" fill="#E4DFDF"/>
<path d="M13.2564 29L13.2564 26.7143L15.3077 26.7143L15.3077 29L13.2564 29Z" fill="#E4DFDF"/>
<path d="M13.2564 23.2857L13.2564 21L15.3077 21L15.3077 23.2857L13.2564 23.2857Z" fill="#E4DFDF"/>
<path d="M15.8205 26.1429L15.8205 23.8571L17.8718 23.8571L17.8718 26.1429L15.8205 26.1429Z" fill="#E4DFDF"/>
<path d="M15.8205 23.2857L15.8205 21L17.8718 21L17.8718 23.2857L15.8205 23.2857Z" fill="#E4DFDF"/>
<path d="M18.3846 26.1429L18.3846 23.8571L20.4359 23.8571L20.4359 26.1429L18.3846 26.1429Z" fill="#E4DFDF"/>
<path d="M15.8205 29L15.8205 26.7143L17.8718 26.7143L17.8718 29L15.8205 29Z" fill="#E4DFDF"/>
<path d="M18.3846 29L18.3846 26.7143L20.4359 26.7143L20.4359 29L18.3846 29Z" fill="#E4DFDF"/>
<path d="M20.9487 29L20.9487 26.7143L23 26.7143L23 29L20.9487 29Z" fill="#E4DFDF"/>
<path d="M20.9487 26.1429L20.9487 23.8571L23 23.8571L23 26.1429L20.9487 26.1429Z" fill="#E4DFDF"/>
<path d="M18.3846 23.2857L18.3846 21L20.4359 21L20.4359 23.2857L18.3846 23.2857Z" fill="#E4DFDF"/>
<path d="M20.9487 23.2857L20.9487 21L23 21L23 23.2857L20.9487 23.2857Z" fill="#E4DFDF"/>
<rect x="0.25" y="0.25" width="26.5" height="20.5" fill="white" stroke="black" stroke-width="0.5"/>
<rect x="2.25" y="2.25" width="22.5" height="16.5" fill="#3E3E3E" stroke="black" stroke-width="0.5"/>
</svg>
