<svg width="211" height="69" viewBox="0 0 211 69" fill="none" xmlns="http://www.w3.org/2000/svg">
<path d="M0.5 51.5H210.5V64.882L208.691 68.5H3.20711L0.5 65.7929V51.5Z" fill="#D6D5C7" stroke="black"/>
<path d="M0.5 37.25V0.5H28.5V33.5V33.6754L28.6096 33.8123L31.6096 37.5623L31.7597 37.75H32H179H179.246L179.396 37.5549L181.896 34.3049L182 34.1701V34V0.5H210.5V37.25V51.0833L207.75 54.75H4.18787L0.5 51.5231V37.25Z" fill="#F1F0DA" stroke="black"/>
<path d="M138.75 46.5C138.75 46.9926 138.393 47.5191 137.604 48.0434C136.825 48.5614 135.682 49.0376 134.246 49.4413C131.378 50.2479 127.402 50.75 123 50.75C118.598 50.75 114.622 50.2479 111.754 49.4413C110.318 49.0376 109.175 48.5614 108.396 48.0434C107.607 47.5191 107.25 46.9926 107.25 46.5C107.25 46.0074 107.607 45.4809 108.396 44.9566C109.175 44.4386 110.318 43.9624 111.754 43.5587C114.622 42.7521 118.598 42.25 123 42.25C127.402 42.25 131.378 42.7521 134.246 43.5587C135.682 43.9624 136.825 44.4386 137.604 44.9566C138.393 45.4809 138.75 46.0074 138.75 46.5Z" fill="white" stroke="black" stroke-width="0.5"/>
<circle cx="198" cy="43" r="7.75" fill="white" stroke="black" stroke-width="0.5"/>
<path d="M205.75 43C205.75 45.0499 204.234 46.3625 202.069 47.1727C199.911 47.9805 197.195 48.25 195 48.25C192.823 48.25 191.682 47.7374 191.053 46.7705C190.731 46.2754 190.528 45.6397 190.407 44.8422C190.287 44.0491 190.25 43.1116 190.25 42.0179C190.743 38.6272 193.732 35.25 198 35.25C202.28 35.25 205.75 38.7198 205.75 43Z" fill="#C85656" stroke="black" stroke-width="0.5"/>
<mask id="path-6-inside-1_163_1054" fill="white">
<path d="M203.211 47.9411C202.294 48.5181 201.153 47.9219 200.768 47.3107C200.768 47.3107 200.463 45.7984 201.379 45.2213C202.296 44.6443 203.704 44.61 204.088 45.2211C204.473 45.8323 204.128 47.3641 203.211 47.9411Z"/>
</mask>
<path d="M203.211 47.9411C202.294 48.5181 201.153 47.9219 200.768 47.3107C200.768 47.3107 200.463 45.7984 201.379 45.2213C202.296 44.6443 203.704 44.61 204.088 45.2211C204.473 45.8323 204.128 47.3641 203.211 47.9411Z" fill="white"/>
<path d="M200.768 47.3107L200.278 47.4098L200.297 47.4996L200.345 47.577L200.768 47.3107ZM202.945 47.518C202.644 47.7069 202.295 47.7157 201.952 47.5984C201.598 47.4771 201.315 47.2409 201.192 47.0444L200.345 47.577C200.606 47.9917 201.087 48.3592 201.628 48.5445C202.181 48.7339 202.861 48.7523 203.477 48.3643L202.945 47.518ZM200.768 47.3107C201.259 47.2116 201.259 47.2117 201.259 47.2119C201.259 47.2119 201.259 47.2121 201.259 47.2121C201.259 47.2123 201.259 47.2125 201.259 47.2126C201.259 47.2128 201.259 47.213 201.259 47.213C201.259 47.2132 201.259 47.213 201.259 47.2124C201.259 47.2113 201.258 47.2088 201.257 47.2051C201.256 47.1977 201.254 47.1851 201.251 47.1681C201.246 47.1341 201.239 47.0825 201.233 47.018C201.22 46.8876 201.213 46.7118 201.228 46.5246C201.262 46.1273 201.388 45.8064 201.646 45.6445L201.113 44.7982C200.454 45.2133 200.275 45.9371 200.232 46.4402C200.21 46.7032 200.221 46.9416 200.237 47.1128C200.245 47.1991 200.255 47.2702 200.263 47.3211C200.267 47.3465 200.27 47.3671 200.273 47.3821C200.275 47.3895 200.276 47.3957 200.277 47.4003C200.277 47.4026 200.277 47.4046 200.278 47.4062C200.278 47.407 200.278 47.4077 200.278 47.4083C200.278 47.4086 200.278 47.4089 200.278 47.4091C200.278 47.4093 200.278 47.4094 200.278 47.4095C200.278 47.4097 200.278 47.4098 200.768 47.3107ZM201.646 45.6445C202.019 45.4097 202.508 45.2793 202.938 45.2756C203.406 45.2717 203.617 45.4111 203.665 45.4875L204.512 44.9548C204.175 44.42 203.49 44.271 202.929 44.2757C202.33 44.2807 201.657 44.456 201.113 44.7982L201.646 45.6445ZM203.665 45.4875C203.697 45.5387 203.737 45.6514 203.743 45.8383C203.748 46.0184 203.721 46.2332 203.657 46.4557C203.526 46.9129 203.266 47.3156 202.945 47.518L203.477 48.3643C204.073 47.9896 204.444 47.338 204.618 46.7322C204.707 46.4232 204.751 46.1044 204.742 45.8074C204.733 45.5171 204.672 45.2092 204.512 44.9548L203.665 45.4875Z" fill="black" mask="url(#path-6-inside-1_163_1054)"/>
<circle cx="13" cy="43" r="7.75" fill="white" stroke="black" stroke-width="0.5"/>
<path d="M20.75 43C20.75 45.0499 19.2336 46.3625 17.0692 47.1727C14.9114 47.9805 12.1952 48.25 10 48.25C7.823 48.25 6.68161 47.7374 6.05272 46.7705C5.73064 46.2754 5.52782 45.6397 5.40712 44.8422C5.28708 44.0491 5.2504 43.1116 5.25 42.0179C5.74296 38.6272 8.73239 35.25 13 35.25C17.2802 35.25 20.75 38.7198 20.75 43Z" fill="#C85656" stroke="black" stroke-width="0.5"/>
<mask id="path-10-inside-2_163_1054" fill="white">
<path d="M18.2108 47.9411C17.2941 48.5181 16.1532 47.9219 15.7685 47.3107C15.7685 47.3107 15.4626 45.7984 16.3794 45.2213C17.2961 44.6443 18.7037 44.61 19.0884 45.2211C19.4731 45.8323 19.1276 47.3641 18.2108 47.9411Z"/>
</mask>
<path d="M18.2108 47.9411C17.2941 48.5181 16.1532 47.9219 15.7685 47.3107C15.7685 47.3107 15.4626 45.7984 16.3794 45.2213C17.2961 44.6443 18.7037 44.61 19.0884 45.2211C19.4731 45.8323 19.1276 47.3641 18.2108 47.9411Z" fill="white"/>
<path d="M15.7685 47.3107L15.2784 47.4098L15.2966 47.4996L15.3453 47.577L15.7685 47.3107ZM17.9445 47.518C17.6443 47.7069 17.2947 47.7157 16.9521 47.5984C16.5977 47.4771 16.3154 47.2409 16.1917 47.0444L15.3453 47.577C15.6063 47.9917 16.0868 48.3592 16.6282 48.5445C17.1814 48.7339 17.8606 48.7523 18.4772 48.3643L17.9445 47.518ZM15.7685 47.3107C16.2586 47.2116 16.2586 47.2117 16.2586 47.2119C16.2586 47.2119 16.2587 47.2121 16.2587 47.2121C16.2587 47.2123 16.2587 47.2125 16.2588 47.2126C16.2588 47.2128 16.2588 47.213 16.2589 47.213C16.2589 47.2132 16.2588 47.213 16.2587 47.2124C16.2585 47.2113 16.2581 47.2088 16.2574 47.2051C16.2561 47.1977 16.2539 47.1851 16.2513 47.1681C16.246 47.1341 16.2389 47.0825 16.2328 47.018C16.2204 46.8876 16.2125 46.7118 16.2284 46.5246C16.262 46.1273 16.3884 45.8064 16.6457 45.6445L16.113 44.7982C15.4535 45.2133 15.2745 45.9371 15.2319 46.4402C15.2097 46.7032 15.221 46.9416 15.2373 47.1128C15.2455 47.1991 15.2551 47.2702 15.263 47.3211C15.267 47.3465 15.2705 47.3671 15.2732 47.3821C15.2745 47.3895 15.2757 47.3957 15.2766 47.4003C15.277 47.4026 15.2774 47.4046 15.2777 47.4062C15.2778 47.407 15.278 47.4077 15.2781 47.4083C15.2782 47.4086 15.2782 47.4089 15.2783 47.4091C15.2783 47.4093 15.2783 47.4094 15.2784 47.4095C15.2784 47.4097 15.2784 47.4098 15.7685 47.3107ZM16.6457 45.6445C17.0188 45.4097 17.5075 45.2793 17.9376 45.2756C18.4062 45.2717 18.6172 45.4111 18.6653 45.4875L19.5116 44.9548C19.175 44.42 18.4898 44.271 17.9292 44.2757C17.3302 44.2807 16.6567 44.456 16.113 44.7982L16.6457 45.6445ZM18.6653 45.4875C18.6975 45.5387 18.737 45.6514 18.7427 45.8383C18.7483 46.0184 18.7212 46.2332 18.6572 46.4557C18.5257 46.9129 18.2659 47.3156 17.9445 47.518L18.4772 48.3643C19.0725 47.9896 19.4439 47.338 19.6182 46.7322C19.7071 46.4232 19.7515 46.1044 19.7423 45.8074C19.7333 45.5171 19.6717 45.2092 19.5116 44.9548L18.6653 45.4875Z" fill="black" mask="url(#path-10-inside-2_163_1054)"/>
<rect x="49" y="1" width="42" height="34" fill="#505050"/>
<rect x="88" y="6" width="3" height="8" fill="#E6CACB"/>
<rect x="49" y="6" width="3" height="8" fill="#E6CACB"/>
<rect x="49" y="20" width="3" height="8" fill="#E6CACB"/>
<rect x="88" y="20" width="3" height="8" fill="#E6CACB"/>
<rect x="92.25" y="3.25" width="8.5" height="32.5" fill="#E1E1E1" stroke="black" stroke-width="0.5"/>
<rect x="39.25" y="3.25" width="8.5" height="32.5" fill="#E1E1E1" stroke="black" stroke-width="0.5"/>
<path d="M155.274 26.75L156.228 16.25H178.214L176.782 26.75H155.274Z" fill="#C4C4C4" stroke="black" stroke-width="0.5"/>
<path d="M156.236 16.75L155.265 0.25H176.771L178.227 16.75H156.236Z" fill="#FBF3F3" stroke="black" stroke-width="0.5"/>
<path d="M144.256 31.2109L144.745 8.22672L154.25 7.27625V29.7832L144.256 31.2109Z" fill="#C4C4C4" stroke="black" stroke-width="0.5"/>
<path d="M146 9H148V11H146V9Z" fill="#E4DFDF"/>
<path d="M148.5 9H150.5V11H148.5V9Z" fill="#E4DFDF"/>
<path d="M151 9H153V11H151V9Z" fill="#E4DFDF"/>
<path d="M146 11.5H148V13.5H146V11.5Z" fill="#E4DFDF"/>
<path d="M151 11.5H153V13.5H151V11.5Z" fill="#E4DFDF"/>
<path d="M148.5 11.5H150.5V13.5H148.5V11.5Z" fill="#E4DFDF"/>
<path d="M146 14H148V16H146V14Z" fill="#E4DFDF"/>
<path d="M151 14H153V16H151V14Z" fill="#E4DFDF"/>
<path d="M146 16.5H148V18.5H146V16.5Z" fill="#E4DFDF"/>
<path d="M148.5 14H150.5V16H148.5V14Z" fill="#E4DFDF"/>
<path d="M148.5 16.5H150.5V18.5H148.5V16.5Z" fill="#E4DFDF"/>
<path d="M151 16.5H153V18.5H151V16.5Z" fill="#E4DFDF"/>
<path d="M148.5 19H150.5V21H148.5V19Z" fill="#E4DFDF"/>
<path d="M146 19H148V21H146V19Z" fill="#E4DFDF"/>
<path d="M151 19H153V21H151V19Z" fill="#E4DFDF"/>
<path d="M148.5 21.5H150.5V23.5H148.5V21.5Z" fill="#E4DFDF"/>
<path d="M151 21.5H153V23.5H151V21.5Z" fill="#E4DFDF"/>
<path d="M148.5 24H150.5V26H148.5V24Z" fill="#E4DFDF"/>
<path d="M146 21.5H148V23.5H146V21.5Z" fill="#E4DFDF"/>
<path d="M146 24H148V26H146V24Z" fill="#E4DFDF"/>
<path d="M146 26.5H148V28.5H146V26.5Z" fill="#E4DFDF"/>
<path d="M148.5 26.5H150.5V28.5H148.5V26.5Z" fill="#E4DFDF"/>
<path d="M151 24H153V26H151V24Z" fill="#E4DFDF"/>
<path d="M151 26.5H153V28.5H151V26.5Z" fill="#E4DFDF"/>
<path d="M146 9H148V11H146V9Z" fill="#E4DFDF"/>
<path d="M148.5 9H150.5V11H148.5V9Z" fill="#E4DFDF"/>
<path d="M151 9H153V11H151V9Z" fill="#E4DFDF"/>
<path d="M146 11.5H148V13.5H146V11.5Z" fill="#E4DFDF"/>
<path d="M151 11.5H153V13.5H151V11.5Z" fill="#E4DFDF"/>
<path d="M148.5 11.5H150.5V13.5H148.5V11.5Z" fill="#E4DFDF"/>
<path d="M146 14H148V16H146V14Z" fill="#E4DFDF"/>
<path d="M151 14H153V16H151V14Z" fill="#E4DFDF"/>
<path d="M146 16.5H148V18.5H146V16.5Z" fill="#E4DFDF"/>
<path d="M148.5 14H150.5V16H148.5V14Z" fill="#E4DFDF"/>
<path d="M148.5 16.5H150.5V18.5H148.5V16.5Z" fill="#E4DFDF"/>
<path d="M151 16.5H153V18.5H151V16.5Z" fill="#E4DFDF"/>
<path d="M148.5 19H150.5V21H148.5V19Z" fill="#E4DFDF"/>
<path d="M146 19H148V21H146V19Z" fill="#E4DFDF"/>
<path d="M151 19H153V21H151V19Z" fill="#E4DFDF"/>
<path d="M148.5 21.5H150.5V23.5H148.5V21.5Z" fill="#E4DFDF"/>
<path d="M151 21.5H153V23.5H151V21.5Z" fill="#E4DFDF"/>
<path d="M148.5 24H150.5V26H148.5V24Z" fill="#E4DFDF"/>
<path d="M146 21.5H148V23.5H146V21.5Z" fill="#E4DFDF"/>
<path d="M146 24H148V26H146V24Z" fill="#E4DFDF"/>
<path d="M146 26.5H148V28.5H146V26.5Z" fill="#E4DFDF"/>
<path d="M148.5 26.5H150.5V28.5H148.5V26.5Z" fill="#E4DFDF"/>
<path d="M151 24H153V26H151V24Z" fill="#E4DFDF"/>
<path d="M151 26.5H153V28.5H151V26.5Z" fill="#E4DFDF"/>
</svg>
