<svg width="67" height="35" viewBox="0 0 67 35" fill="none" xmlns="http://www.w3.org/2000/svg">
<rect x="2.25" y="1.25" width="62.5" height="25.5" fill="#E6E3E3" stroke="black" stroke-width="0.5"/>
<rect x="2.25" y="9.25" width="62.5" height="24.5" fill="#C4C4C4" stroke="black" stroke-width="0.5"/>
<path d="M50.25 20.359V10.311L51.9463 10.6842L52 10.696L52.0537 10.6842L53.75 10.311V20.359L52 20.744L50.25 20.359Z" fill="#A94C4C" stroke="black" stroke-width="0.5"/>
<path d="M51.25 33.359V23.311L52.9463 23.6842L53 23.696L53.0537 23.6842L54.75 23.311V33.359L53 33.744L51.25 33.359Z" fill="#A94C4C" stroke="black" stroke-width="0.5"/>
<path d="M38.25 20.359V10.311L39.9463 10.6842L40 10.696L40.0537 10.6842L41.75 10.311V20.359L40 20.744L38.25 20.359Z" fill="#DAC935" stroke="black" stroke-width="0.5"/>
<path d="M45.25 33.359V23.311L46.9463 23.6842L47 23.696L47.0537 23.6842L48.75 23.311V33.359L47 33.744L45.25 33.359Z" fill="#A94C4C" stroke="black" stroke-width="0.5"/>
<path d="M26.25 20.359V10.311L27.9463 10.6842L28 10.696L28.0537 10.6842L29.75 10.311V20.359L28 20.744L26.25 20.359Z" fill="#A94C4C" stroke="black" stroke-width="0.5"/>
<path d="M27.25 33.359V23.311L28.9463 23.6842L29 23.696L29.0537 23.6842L30.75 23.311V33.359L29 33.744L27.25 33.359Z" fill="#4D5B80" stroke="black" stroke-width="0.5"/>
<path d="M18.25 33.359V23.311L19.9463 23.6842L20 23.696L20.0537 23.6842L21.75 23.311V33.359L20 33.744L18.25 33.359Z" fill="#DAC935" stroke="black" stroke-width="0.5"/>
<path d="M12.25 33.359V23.311L13.9463 23.6842L14 23.696L14.0537 23.6842L15.75 23.311V33.359L14 33.744L12.25 33.359Z" fill="#DAC935" stroke="black" stroke-width="0.5"/>
<path d="M14.25 20.359V10.311L15.9463 10.6842L16 10.696L16.0537 10.6842L17.75 10.311V20.359L16 20.744L14.25 20.359Z" fill="#DAC935" stroke="black" stroke-width="0.5"/>
<path d="M15.25 33.359V23.311L16.9463 23.6842L17 23.696L17.0537 23.6842L18.75 23.311V33.359L17 33.744L15.25 33.359Z" fill="#4D5B80" stroke="black" stroke-width="0.5"/>
<path d="M5.25 20.395V11.305L6.95097 11.6451L7 11.655L7.04903 11.6451L8.75 11.305V20.395L7 20.745L5.25 20.395Z" fill="#E8E0E0" stroke="black" stroke-width="0.5"/>
<path d="M8.25 20.359V10.311L9.94628 10.6842L10 10.696L10.0537 10.6842L11.75 10.311V20.359L10 20.744L8.25 20.359Z" fill="#E8E0E0" stroke="black" stroke-width="0.5"/>
<path d="M11.25 20.8048V9.32019L12.9394 9.74254L13 9.75769L13.0606 9.74254L14.75 9.32019V20.8048L13 21.2423L11.25 20.8048Z" fill="#E8E0E0" stroke="black" stroke-width="0.5"/>
<path d="M17.25 20.395V11.305L18.951 11.6451L19 11.655L19.049 11.6451L20.75 11.305V20.395L19 20.745L17.25 20.395Z" fill="#E8E0E0" stroke="black" stroke-width="0.5"/>
<path d="M20.25 20.359V10.311L21.9463 10.6842L22 10.696L22.0537 10.6842L23.75 10.311V20.359L22 20.744L20.25 20.359Z" fill="#E8E0E0" stroke="black" stroke-width="0.5"/>
<path d="M23.25 20.8048V9.32019L24.9394 9.74254L25 9.75769L25.0606 9.74254L26.75 9.32019V20.8048L25 21.2423L23.25 20.8048Z" fill="#E8E0E0" stroke="black" stroke-width="0.5"/>
<path d="M29.25 20.395V11.305L30.951 11.6451L31 11.655L31.049 11.6451L32.75 11.305V20.395L31 20.745L29.25 20.395Z" fill="#4D5B80" stroke="black" stroke-width="0.5"/>
<path d="M32.25 20.359V10.311L33.9463 10.6842L34 10.696L34.0537 10.6842L35.75 10.311V20.359L34 20.744L32.25 20.359Z" fill="#E8E0E0" stroke="black" stroke-width="0.5"/>
<path d="M35.25 20.8048V9.32019L36.9394 9.74254L37 9.75769L37.0606 9.74254L38.75 9.32019V20.8048L37 21.2423L35.25 20.8048Z" fill="#E8E0E0" stroke="black" stroke-width="0.5"/>
<path d="M41.25 20.395V11.305L42.951 11.6451L43 11.655L43.049 11.6451L44.75 11.305V20.395L43 20.745L41.25 20.395Z" fill="#E8E0E0" stroke="black" stroke-width="0.5"/>
<path d="M44.25 20.359V10.311L45.9463 10.6842L46 10.696L46.0537 10.6842L47.75 10.311V20.359L46 20.744L44.25 20.359Z" fill="#E8E0E0" stroke="black" stroke-width="0.5"/>
<path d="M47.25 20.8048V9.32019L48.9394 9.74254L49 9.75769L49.0606 9.74254L50.75 9.32019V20.8048L49 21.2423L47.25 20.8048Z" fill="#E8E0E0" stroke="black" stroke-width="0.5"/>
<path d="M53.25 20.395V11.305L54.951 11.6451L55 11.655L55.049 11.6451L56.75 11.305V20.395L55 20.745L53.25 20.395Z" fill="#4D5B80" stroke="black" stroke-width="0.5"/>
<path d="M56.25 20.359V10.311L57.9463 10.6842L58 10.696L58.0537 10.6842L59.75 10.311V20.359L58 20.744L56.25 20.359Z" fill="#E8E0E0" stroke="black" stroke-width="0.5"/>
<path d="M59.25 20.8048V9.32019L60.9394 9.74254L61 9.75769L61.0606 9.74254L62.75 9.32019V20.8048L61 21.2423L59.25 20.8048Z" fill="#E8E0E0" stroke="black" stroke-width="0.5"/>
<path d="M60.25 33.8048V22.3202L61.9394 22.7425L62 22.7577L62.0606 22.7425L63.75 22.3202V33.8048L62 34.2423L60.25 33.8048Z" fill="#DAC935" stroke="black" stroke-width="0.5"/>
<path d="M3.25 20.3811V11.2855L5.96696 11.6478L6 11.6522L6.03304 11.6478L8.75 11.2855V20.3811L6 20.7478L3.25 20.3811Z" fill="#7D9978" stroke="black" stroke-width="0.5"/>
<path d="M3.25 33.3769V24.2802L6.47161 24.6484L6.5 24.6516L6.52839 24.6484L9.75 24.2802V33.3769L6.5 33.7484L3.25 33.3769Z" fill="#4D5B80" stroke="black" stroke-width="0.5"/>
<path d="M8.25 20.359V10.311L9.94628 10.6842L10 10.696L10.0537 10.6842L11.75 10.311V20.359L10 20.744L8.25 20.359Z" fill="#4D5B80" stroke="black" stroke-width="0.5"/>
<path d="M9.25 33.359V23.311L10.9463 23.6842L11 23.696L11.0537 23.6842L12.75 23.311V33.359L11 33.744L9.25 33.359Z" fill="#A94C4C" stroke="black" stroke-width="0.5"/>
<path d="M11.25 20.8048V9.32019L12.9394 9.74254L13 9.75769L13.0606 9.74254L14.75 9.32019V20.8048L13 21.2423L11.25 20.8048Z" fill="#7D9978" stroke="black" stroke-width="0.5"/>
<path d="M24.25 33.8048V22.3202L25.9394 22.7425L26 22.7577L26.0606 22.7425L27.75 22.3202V33.8048L26 34.2423L24.25 33.8048Z" fill="#A94C4C" stroke="black" stroke-width="0.5"/>
<path d="M17.25 20.395V11.305L18.951 11.6451L19 11.655L19.049 11.6451L20.75 11.305V20.395L19 20.745L17.25 20.395Z" fill="#4D5B80" stroke="black" stroke-width="0.5"/>
<path d="M39.25 32.395V23.305L40.951 23.6451L41 23.655L41.049 23.6451L42.75 23.305V32.395L41 32.745L39.25 32.395Z" fill="#A94C4C" stroke="black" stroke-width="0.5"/>
<path d="M20.25 20.359V10.311L21.9463 10.6842L22 10.696L22.0537 10.6842L23.75 10.311V20.359L22 20.744L20.25 20.359Z" fill="#7D9978" stroke="black" stroke-width="0.5"/>
<path d="M21.25 33.359V23.311L22.9463 23.6842L23 23.696L23.0537 23.6842L24.75 23.311V33.359L23 33.744L21.25 33.359Z" fill="#4D5B80" stroke="black" stroke-width="0.5"/>
<path d="M23.25 20.8048V9.32019L24.9394 9.74254L25 9.75769L25.0606 9.74254L26.75 9.32019V20.8048L25 21.2423L23.25 20.8048Z" fill="#4D5B80" stroke="black" stroke-width="0.5"/>
<path d="M24.25 33.8048V22.3202L25.9394 22.7425L26 22.7577L26.0606 22.7425L27.75 22.3202V33.8048L26 34.2423L24.25 33.8048Z" fill="#DAC935" stroke="black" stroke-width="0.5"/>
<path d="M30.25 33.395V24.305L31.951 24.6451L32 24.655L32.049 24.6451L33.75 24.305V33.395L32 33.745L30.25 33.395Z" fill="#7D9978" stroke="black" stroke-width="0.5"/>
<path d="M32.25 20.359V10.311L33.9463 10.6842L34 10.696L34.0537 10.6842L35.75 10.311V20.359L34 20.744L32.25 20.359Z" fill="#7D9978" stroke="black" stroke-width="0.5"/>
<path d="M33.25 33.359V23.311L34.9463 23.6842L35 23.696L35.0537 23.6842L36.75 23.311V33.359L35 33.744L33.25 33.359Z" fill="#4D5B80" stroke="black" stroke-width="0.5"/>
<path d="M35.25 20.8048V9.32019L36.9394 9.74254L37 9.75769L37.0606 9.74254L38.75 9.32019V20.8048L37 21.2423L35.25 20.8048Z" fill="#A94C4C" stroke="black" stroke-width="0.5"/>
<path d="M36.25 33.8048V22.3202L37.9394 22.7425L38 22.7577L38.0606 22.7425L39.75 22.3202V33.8048L38 34.2423L36.25 33.8048Z" fill="#7D9978" stroke="black" stroke-width="0.5"/>
<path d="M41.25 20.395V11.305L42.951 11.6451L43 11.655L43.049 11.6451L44.75 11.305V20.395L43 20.745L41.25 20.395Z" fill="#A94C4C" stroke="black" stroke-width="0.5"/>
<path d="M42.25 33.395V24.305L43.951 24.6451L44 24.655L44.049 24.6451L45.75 24.305V33.395L44 33.745L42.25 33.395Z" fill="#4D5B80" stroke="black" stroke-width="0.5"/>
<path d="M44.25 20.359V10.311L45.9463 10.6842L46 10.696L46.0537 10.6842L47.75 10.311V20.359L46 20.744L44.25 20.359Z" fill="#7D9978" stroke="black" stroke-width="0.5"/>
<path d="M54.25 33.359V23.311L55.9463 23.6842L56 23.696L56.0537 23.6842L57.75 23.311V33.359L56 33.744L54.25 33.359Z" fill="#A94C4C" stroke="black" stroke-width="0.5"/>
<path d="M47.25 20.8048V9.32019L48.9394 9.74254L49 9.75769L49.0606 9.74254L50.75 9.32019V20.8048L49 21.2423L47.25 20.8048Z" fill="#4D5B80" stroke="black" stroke-width="0.5"/>
<path d="M48.25 33.8048V22.3202L49.9394 22.7425L50 22.7577L50.0606 22.7425L51.75 22.3202V33.8048L50 34.2423L48.25 33.8048Z" fill="#7D9978" stroke="black" stroke-width="0.5"/>
<path d="M24.25 20.395V11.305L25.951 11.6451L26 11.655L26.049 11.6451L27.75 11.305V20.395L26 20.745L24.25 20.395Z" fill="#A94C4C" stroke="black" stroke-width="0.5"/>
<path d="M56.25 20.359V10.311L57.9463 10.6842L58 10.696L58.0537 10.6842L59.75 10.311V20.359L58 20.744L56.25 20.359Z" fill="#7D9978" stroke="black" stroke-width="0.5"/>
<path d="M57.25 33.359V23.311L58.9463 23.6842L59 23.696L59.0537 23.6842L60.75 23.311V33.359L59 33.744L57.25 33.359Z" fill="#DAC935" stroke="black" stroke-width="0.5"/>
<path d="M59.25 20.8048V9.32019L60.9394 9.74254L61 9.75769L61.0606 9.74254L62.75 9.32019V20.8048L61 21.2423L59.25 20.8048Z" fill="#A94C4C" stroke="black" stroke-width="0.5"/>
<rect x="63.25" y="0.25" width="3.5" height="34.5" fill="#E8E0E0" stroke="black" stroke-width="0.5"/>
<rect x="0.25" y="0.25" width="3.5" height="34.5" fill="#E8E0E0" stroke="black" stroke-width="0.5"/>
</svg>
