<svg width="23" height="34" viewBox="0 0 23 34" fill="none" xmlns="http://www.w3.org/2000/svg">
<path d="M2.71951 33.25L1.28473 22.25H21.7028L19.7897 33.25H2.71951Z" fill="#CBCBCB" stroke="black" stroke-width="0.5"/>
<path d="M21.75 22.5C21.75 23.0368 21.4972 23.5691 20.9969 24.076C20.4956 24.584 19.7577 25.053 18.8261 25.4522C16.964 26.2503 14.3739 26.75 11.5 26.75C8.62605 26.75 6.03604 26.2503 4.17386 25.4522C3.24232 25.053 2.50444 24.584 2.00308 24.076C1.50278 23.5691 1.25 23.0368 1.25 22.5C1.25 21.9632 1.50278 21.4309 2.00308 20.924C2.50444 20.416 3.24232 19.947 4.17386 19.5478C6.03604 18.7497 8.62605 18.25 11.5 18.25C14.3739 18.25 16.964 18.7497 18.8261 19.5478C19.7577 19.947 20.4956 20.416 20.9969 20.924C21.4972 21.4309 21.75 21.9632 21.75 22.5Z" fill="#694130" stroke="black" stroke-width="0.5"/>
<path d="M10 17H13V25L11.5 25.5L10 25V17Z" fill="#433834"/>
<path d="M11.4999 0L15.6008 7.10294H7.39906L11.4999 0Z" fill="#457E82"/>
<path d="M11.4999 0L15.6008 7.10294H7.39906L11.4999 0Z" fill="#457E82"/>
<path d="M11.4999 0L15.6008 7.10294H7.39906L11.4999 0Z" fill="#457E82"/>
<path d="M11.4999 4.05859L15.6008 11.1615H7.39906L11.4999 4.05859Z" fill="#457E82"/>
<path d="M11.4999 4.05859L15.6008 11.1615H7.39906L11.4999 4.05859Z" fill="#457E82"/>
<path d="M11.4999 4.05859L15.6008 11.1615H7.39906L11.4999 4.05859Z" fill="#457E82"/>
<path d="M8.79389 2.70605L12.8948 9.809H4.693L8.79389 2.70605Z" fill="#457E82"/>
<path d="M8.79389 2.70605L12.8948 9.809H4.693L8.79389 2.70605Z" fill="#457E82"/>
<path d="M8.79389 2.70605L12.8948 9.809H4.693L8.79389 2.70605Z" fill="#457E82"/>
<path d="M6.08832 4.05859L10.1892 11.1615H1.98744L6.08832 4.05859Z" fill="#457E82"/>
<path d="M6.08832 4.05859L10.1892 11.1615H1.98744L6.08832 4.05859Z" fill="#457E82"/>
<path d="M6.08832 4.05859L10.1892 11.1615H1.98744L6.08832 4.05859Z" fill="#457E82"/>
<path d="M14.206 2.70605L18.3069 9.809H10.1051L14.206 2.70605Z" fill="#457E82"/>
<path d="M14.206 2.70605L18.3069 9.809H10.1051L14.206 2.70605Z" fill="#457E82"/>
<path d="M14.206 2.70605L18.3069 9.809H10.1051L14.206 2.70605Z" fill="#457E82"/>
<path d="M16.9116 4.05859L21.0124 11.1615H12.8107L16.9116 4.05859Z" fill="#457E82"/>
<path d="M16.9116 4.05859L21.0124 11.1615H12.8107L16.9116 4.05859Z" fill="#457E82"/>
<path d="M16.9116 4.05859L21.0124 11.1615H12.8107L16.9116 4.05859Z" fill="#457E82"/>
<path d="M18.2646 9.4707L22.3655 16.5736H14.1637L18.2646 9.4707Z" fill="#457E82"/>
<path d="M18.2646 9.4707L22.3655 16.5736H14.1637L18.2646 9.4707Z" fill="#457E82"/>
<path d="M18.2646 9.4707L22.3655 16.5736H14.1637L18.2646 9.4707Z" fill="#457E82"/>
<path d="M15.559 8.11768L19.6599 15.2206H11.4581L15.559 8.11768Z" fill="#457E82"/>
<path d="M15.559 8.11768L19.6599 15.2206H11.4581L15.559 8.11768Z" fill="#457E82"/>
<path d="M15.559 8.11768L19.6599 15.2206H11.4581L15.559 8.11768Z" fill="#457E82"/>
<path d="M12.853 9.4707L16.9539 16.5736H8.75208L12.853 9.4707Z" fill="#457E82"/>
<path d="M12.853 9.4707L16.9539 16.5736H8.75208L12.853 9.4707Z" fill="#457E82"/>
<path d="M12.853 9.4707L16.9539 16.5736H8.75208L12.853 9.4707Z" fill="#457E82"/>
<path d="M15.559 12.1763L19.6599 19.2792H11.4581L15.559 12.1763Z" fill="#457E82"/>
<path d="M15.559 12.1763L19.6599 19.2792H11.4581L15.559 12.1763Z" fill="#457E82"/>
<path d="M15.559 12.1763L19.6599 19.2792H11.4581L15.559 12.1763Z" fill="#457E82"/>
<path d="M15.559 12.1763L19.6599 19.2792H11.4581L15.559 12.1763Z" fill="#457E82"/>
<path d="M15.559 12.1763L19.6599 19.2792H11.4581L15.559 12.1763Z" fill="#457E82"/>
<path d="M15.559 12.1763L19.6599 19.2792H11.4581L15.559 12.1763Z" fill="#457E82"/>
<path d="M11.4999 12.1763L15.6008 19.2792H7.39906L11.4999 12.1763Z" fill="#457E82"/>
<path d="M11.4999 12.1763L15.6008 19.2792H7.39906L11.4999 12.1763Z" fill="#457E82"/>
<path d="M11.4999 12.1763L15.6008 19.2792H7.39906L11.4999 12.1763Z" fill="#457E82"/>
<path d="M10.1469 6.76465L14.2478 13.8676H6.04603L10.1469 6.76465Z" fill="#457E82"/>
<path d="M10.1469 6.76465L14.2478 13.8676H6.04603L10.1469 6.76465Z" fill="#457E82"/>
<path d="M10.1469 6.76465L14.2478 13.8676H6.04603L10.1469 6.76465Z" fill="#457E82"/>
<path d="M8.79389 9.4707L12.8948 16.5736H4.693L8.79389 9.4707Z" fill="#457E82"/>
<path d="M8.79389 9.4707L12.8948 16.5736H4.693L8.79389 9.4707Z" fill="#457E82"/>
<path d="M8.79389 9.4707L12.8948 16.5736H4.693L8.79389 9.4707Z" fill="#457E82"/>
<path d="M6.08832 8.11768L10.1892 15.2206H1.98744L6.08832 8.11768Z" fill="#457E82"/>
<path d="M6.08832 8.11768L10.1892 15.2206H1.98744L6.08832 8.11768Z" fill="#457E82"/>
<path d="M6.08832 8.11768L10.1892 15.2206H1.98744L6.08832 8.11768Z" fill="#457E82"/>
<path d="M4.73529 13.5293L8.83618 20.6322H0.634409L4.73529 13.5293Z" fill="#457E82"/>
<path d="M4.73529 13.5293L8.83618 20.6322H0.634409L4.73529 13.5293Z" fill="#457E82"/>
<path d="M4.73529 13.5293L8.83618 20.6322H0.634409L4.73529 13.5293Z" fill="#457E82"/>
<path d="M7.44135 14.8823L11.5422 21.9853H3.34046L7.44135 14.8823Z" fill="#457E82"/>
<path d="M7.44135 14.8823L11.5422 21.9853H3.34046L7.44135 14.8823Z" fill="#457E82"/>
<path d="M7.44135 14.8823L11.5422 21.9853H3.34046L7.44135 14.8823Z" fill="#457E82"/>
<path d="M14.206 14.8823L18.3069 21.9853H10.1051L14.206 14.8823Z" fill="#457E82"/>
<path d="M14.206 14.8823L18.3069 21.9853H10.1051L14.206 14.8823Z" fill="#457E82"/>
<path d="M14.206 14.8823L18.3069 21.9853H10.1051L14.206 14.8823Z" fill="#457E82"/>
<path d="M11.4999 14.8823L15.6008 21.9853H7.39906L11.4999 14.8823Z" fill="#457E82"/>
<path d="M11.4999 14.8823L15.6008 21.9853H7.39906L11.4999 14.8823Z" fill="#457E82"/>
<path d="M11.4999 14.8823L15.6008 21.9853H7.39906L11.4999 14.8823Z" fill="#457E82"/>
<path d="M18.2646 13.5293L22.3655 20.6322H14.1637L18.2646 13.5293Z" fill="#457E82"/>
<path d="M18.2646 13.5293L22.3655 20.6322H14.1637L18.2646 13.5293Z" fill="#457E82"/>
<path d="M18.2646 13.5293L22.3655 20.6322H14.1637L18.2646 13.5293Z" fill="#457E82"/>
</svg>
