<svg width="96" height="99" viewBox="0 0 96 99" fill="none" xmlns="http://www.w3.org/2000/svg">
<rect x="6" y="51" width="82" height="48" fill="#EAEAEA"/>
<rect x="6.25" y="51.25" width="81.5" height="47.5" stroke="black" stroke-opacity="0.38" stroke-width="0.5"/>
<path d="M5 0H91L96 59H0L5 0Z" fill="#9A5A2C"/>
<rect x="35" y="72" width="24" height="27" fill="#8E3F3F"/>
<rect x="35.25" y="72.25" width="23.5" height="26.5" stroke="black" stroke-opacity="0.43" stroke-width="0.5"/>
<rect x="64" y="68" width="19" height="16" fill="url(#paint0_linear_104_3038)"/>
<rect x="64.25" y="68.25" width="18.5" height="15.5" stroke="black" stroke-opacity="0.21" stroke-width="0.5"/>
<line x1="73.25" y1="68" x2="73.25" y2="84" stroke="black" stroke-opacity="0.28" stroke-width="0.5"/>
<line x1="83" y1="76.25" x2="64" y2="76.25" stroke="black" stroke-opacity="0.28" stroke-width="0.5"/>
<rect x="11" y="68" width="19" height="16" fill="url(#paint1_linear_104_3038)"/>
<rect x="11.25" y="68.25" width="18.5" height="15.5" stroke="black" stroke-opacity="0.21" stroke-width="0.5"/>
<line x1="20.25" y1="68" x2="20.25" y2="84" stroke="black" stroke-opacity="0.28" stroke-width="0.5"/>
<line x1="30" y1="76.25" x2="11" y2="76.25" stroke="black" stroke-opacity="0.28" stroke-width="0.5"/>
<defs>
<linearGradient id="paint0_linear_104_3038" x1="73.5" y1="68" x2="73.5" y2="84" gradientUnits="userSpaceOnUse">
<stop stop-color="#8BD6DB"/>
<stop offset="1" stop-color="#8BD6DB" stop-opacity="0"/>
</linearGradient>
<linearGradient id="paint1_linear_104_3038" x1="20.5" y1="68" x2="20.5" y2="84" gradientUnits="userSpaceOnUse">
<stop stop-color="#8BD6DB"/>
<stop offset="1" stop-color="#8BD6DB" stop-opacity="0"/>
</linearGradient>
</defs>
</svg>
