<svg width="71" height="71" viewBox="0 0 71 71" fill="none" xmlns="http://www.w3.org/2000/svg">
<ellipse cx="36" cy="66.5" rx="20" ry="4.5" fill="black" fill-opacity="0.26"/>
<path d="M32 50H40V68C40 68 39.5 69 36 69C32.5 69 32 68 32 68V50Z" fill="#694130"/>
<path fill-rule="evenodd" clip-rule="evenodd" d="M16.3885 53.7316C17.9373 58.1145 22.1171 61.2547 27.0304 61.2547C29.9203 61.2547 32.5565 60.1683 34.5528 58.3816C36.5491 60.1683 39.1853 61.2547 42.0752 61.2547C46.9885 61.2547 51.1683 58.1145 52.7171 53.7316L52.7668 53.7319L52.8214 53.7321C59.0532 53.7321 64.1051 48.6802 64.1051 42.4483C64.1051 38.8066 62.38 35.5679 59.7023 33.5047C60.4568 31.991 60.8812 30.284 60.8812 28.4778C60.8812 25.2559 59.5308 22.3493 57.3652 20.2933C57.5563 19.4703 57.6573 18.6127 57.6573 17.7316C57.6573 11.6781 52.8903 6.73792 46.9054 6.4602C45.097 2.64134 41.2078 0 36.7017 0C31.7667 0 27.5716 3.1681 26.0394 7.58144C25.6585 7.54259 25.2719 7.52268 24.8807 7.52268C18.6489 7.52268 13.597 12.5746 13.597 18.8064C13.597 19.6876 13.698 20.5451 13.8891 21.3681C11.7234 23.4242 10.3731 26.3307 10.3731 29.5526C10.3731 30.6055 10.5173 31.6247 10.7871 32.5916C7.33443 34.5211 5 38.2121 5 42.4483C5 48.6802 10.0519 53.7321 16.2837 53.7321C16.3187 53.7321 16.3536 53.7319 16.3885 53.7316Z" fill="#2F604F"/>
<path fill-rule="evenodd" clip-rule="evenodd" d="M22.729 50.525C24.103 54.413 27.8109 57.1986 32.1693 57.1986C34.733 57.1986 37.0716 56.2348 38.8425 54.6498C40.6134 56.2348 42.952 57.1986 45.5157 57.1986C49.8741 57.1986 53.582 54.413 54.956 50.525C54.9869 50.5253 55.0178 50.5254 55.0488 50.5254C60.577 50.5254 65.0585 46.0439 65.0585 40.5156C65.0585 37.2851 63.5282 34.4121 61.1529 32.5819C61.8222 31.2391 62.1986 29.7248 62.1986 28.1226C62.1986 25.2644 61.0007 22.6861 59.0796 20.8622C59.2491 20.132 59.3387 19.3712 59.3387 18.5895C59.3387 13.2194 55.11 8.83704 49.8008 8.59066C48.1965 5.20297 44.7465 2.85986 40.7491 2.85986C36.3714 2.85986 32.65 5.6702 31.2907 9.58518C30.9527 9.5507 30.6098 9.53304 30.2627 9.53304C24.7345 9.53304 20.2529 14.0146 20.2529 19.5428C20.2529 20.3245 20.3426 21.0853 20.5121 21.8155C18.5909 23.6394 17.393 26.2177 17.393 29.0759C17.393 30.0099 17.5209 30.914 17.7602 31.7717C14.6974 33.4834 12.6265 36.7577 12.6265 40.5156C12.6265 46.0439 17.108 50.5254 22.6362 50.5254C22.6672 50.5254 22.6981 50.5253 22.729 50.525Z" fill="#38876B"/>
</svg>
