<svg width="68" height="68" viewBox="0 0 68 68" fill="none" xmlns="http://www.w3.org/2000/svg">
<path d="M33 0L43.3923 18H22.6077L33 0Z" fill="#457E82"/>
<path d="M50 14L60.3923 32H39.6077L50 14Z" fill="#457E82"/>
<path d="M33 14L43.3923 32H22.6077L33 14Z" fill="#457E82"/>
<path d="M18 14L28.3923 32H7.6077L18 14Z" fill="#457E82"/>
<path d="M12 28L22.3923 46H1.6077L12 28Z" fill="#457E82"/>
<path d="M26 28L36.3923 46H15.6077L26 28Z" fill="#457E82"/>
<path d="M33 44L48.5885 62H17.4115L33 44Z" fill="#694130"/>
<path d="M39 28L49.3923 46H28.6077L39 28Z" fill="#457E82"/>
<path d="M56 28L66.3923 46H45.6077L56 28Z" fill="#457E82"/>
</svg>
