<svg width="38" height="38" viewBox="0 0 38 38" fill="none" xmlns="http://www.w3.org/2000/svg">
<path fill-rule="evenodd" clip-rule="evenodd" d="M12.8245 15.7771L15.5838 10.1699C13.1411 13.0748 11.9952 15.3576 11.4521 16.7713C11.4507 16.531 11.447 16.237 11.4398 15.8797C11.4099 14.4039 11.7695 11.1401 11.7695 11.1401C10.1308 13.0044 10.213 15.1898 10.5553 17.1001C9.88861 15.8234 8.83433 14.754 6.99219 13.7735C6.99219 13.7735 9.15618 16.2955 9.77496 17.4302C10.3937 18.5648 10.6 18.681 10.6 18.681L10.6983 18.5582L10.7506 18.5446L10.7334 18.6135C10.7334 18.6135 11.0014 18.7256 12.5706 18.4887C14.1397 18.2517 18.2197 18.4776 18.2197 18.4776C16.5439 17.73 15.1277 17.402 13.8179 17.3847C14.3045 17.1315 14.7774 16.8378 15.1804 16.5032C16.9326 15.0483 18.5434 11.7567 18.5434 11.7567C16.7067 12.7156 14.4636 14.3217 12.8245 15.7771Z" fill="#22792B"/>
<path fill-rule="evenodd" clip-rule="evenodd" d="M12.8245 15.7771L15.5838 10.1699C13.1411 13.0748 11.9952 15.3576 11.4521 16.7713C11.4507 16.531 11.447 16.237 11.4398 15.8797C11.4099 14.4039 11.7695 11.1401 11.7695 11.1401C10.1308 13.0044 10.213 15.1898 10.5553 17.1001C9.88861 15.8234 8.83433 14.754 6.99219 13.7735C6.99219 13.7735 9.15618 16.2955 9.77496 17.4302C10.3937 18.5648 10.6 18.681 10.6 18.681L10.6983 18.5582L10.7506 18.5446L10.7334 18.6135C10.7334 18.6135 11.0014 18.7256 12.5706 18.4887C14.1397 18.2517 18.2197 18.4776 18.2197 18.4776C16.5439 17.73 15.1277 17.402 13.8179 17.3847C14.3045 17.1315 14.7774 16.8378 15.1804 16.5032C16.9326 15.0483 18.5434 11.7567 18.5434 11.7567C16.7067 12.7156 14.4636 14.3217 12.8245 15.7771Z" fill="#22792B"/>
<path fill-rule="evenodd" clip-rule="evenodd" d="M12.8245 20.7644L15.5838 15.1572C13.1411 18.0621 11.9952 20.3449 11.4521 21.7586C11.4507 21.5183 11.447 21.2244 11.4398 20.867C11.4099 19.3912 11.7695 16.1274 11.7695 16.1274C10.1308 17.9917 10.213 20.1771 10.5553 22.0874C9.88861 20.8107 8.83433 19.7413 6.99219 18.7609C6.99219 18.7609 9.15618 21.2828 9.77496 22.4175C10.3937 23.5521 10.6 23.6683 10.6 23.6683L10.6983 23.5456L10.7506 23.5319L10.7334 23.6008C10.7334 23.6008 11.0014 23.7129 12.5706 23.476C14.1397 23.239 18.2197 23.4649 18.2197 23.4649C16.5439 22.7173 15.1277 22.3893 13.8179 22.372C14.3045 22.1188 14.7774 21.8251 15.1804 21.4905C16.9326 20.0356 18.5434 16.744 18.5434 16.744C16.7067 17.7029 14.4636 19.309 12.8245 20.7644Z" fill="#22792B"/>
<path fill-rule="evenodd" clip-rule="evenodd" d="M12.8245 20.7644L15.5838 15.1572C13.1411 18.0621 11.9952 20.3449 11.4521 21.7586C11.4507 21.5183 11.447 21.2244 11.4398 20.867C11.4099 19.3912 11.7695 16.1274 11.7695 16.1274C10.1308 17.9917 10.213 20.1771 10.5553 22.0874C9.88861 20.8107 8.83433 19.7413 6.99219 18.7609C6.99219 18.7609 9.15618 21.2828 9.77496 22.4175C10.3937 23.5521 10.6 23.6683 10.6 23.6683L10.6983 23.5456L10.7506 23.5319L10.7334 23.6008C10.7334 23.6008 11.0014 23.7129 12.5706 23.476C14.1397 23.239 18.2197 23.4649 18.2197 23.4649C16.5439 22.7173 15.1277 22.3893 13.8179 22.372C14.3045 22.1188 14.7774 21.8251 15.1804 21.4905C16.9326 20.0356 18.5434 16.744 18.5434 16.744C16.7067 17.7029 14.4636 19.309 12.8245 20.7644Z" fill="#22792B"/>
<path fill-rule="evenodd" clip-rule="evenodd" d="M26.5404 10.7893L29.2996 5.18213C26.8569 8.08698 25.711 10.3698 25.1679 11.7835C25.1665 11.5432 25.1628 11.2493 25.1556 10.8919C25.1257 9.41614 25.4854 6.15233 25.4854 6.15233C23.8466 8.01662 23.9289 10.202 24.2711 12.1123C23.6044 10.8356 22.5502 9.76623 20.708 8.78576C20.708 8.78576 22.872 11.3077 23.4908 12.4424C24.1096 13.577 24.3159 13.6932 24.3159 13.6932L24.4141 13.5705L24.4664 13.5568L24.4492 13.6257C24.4492 13.6257 24.7173 13.7378 26.2864 13.5009C27.8555 13.2639 31.9355 13.4898 31.9355 13.4898C30.2597 12.7422 28.8435 12.4142 27.5338 12.3969C28.0203 12.1437 28.4932 11.85 28.8962 11.5154C30.6484 10.0605 32.2593 6.76891 32.2593 6.76891C30.4225 7.72784 28.1794 9.33394 26.5404 10.7893Z" fill="#22792B"/>
<path fill-rule="evenodd" clip-rule="evenodd" d="M26.5404 10.7893L29.2996 5.18213C26.8569 8.08698 25.711 10.3698 25.1679 11.7835C25.1665 11.5432 25.1628 11.2493 25.1556 10.8919C25.1257 9.41614 25.4854 6.15233 25.4854 6.15233C23.8466 8.01662 23.9289 10.202 24.2711 12.1123C23.6044 10.8356 22.5502 9.76623 20.708 8.78576C20.708 8.78576 22.872 11.3077 23.4908 12.4424C24.1096 13.577 24.3159 13.6932 24.3159 13.6932L24.4141 13.5705L24.4664 13.5568L24.4492 13.6257C24.4492 13.6257 24.7173 13.7378 26.2864 13.5009C27.8555 13.2639 31.9355 13.4898 31.9355 13.4898C30.2597 12.7422 28.8435 12.4142 27.5338 12.3969C28.0203 12.1437 28.4932 11.85 28.8962 11.5154C30.6484 10.0605 32.2593 6.76891 32.2593 6.76891C30.4225 7.72784 28.1794 9.33394 26.5404 10.7893Z" fill="#22792B"/>
<path fill-rule="evenodd" clip-rule="evenodd" d="M26.5404 31.9861L29.2996 26.3789C26.8569 29.2838 25.711 31.5666 25.1679 32.9803C25.1665 32.74 25.1628 32.446 25.1556 32.0887C25.1257 30.6129 25.4854 27.3491 25.4854 27.3491C23.8466 29.2134 23.9289 31.3988 24.2711 33.3091C23.6044 32.0324 22.5502 30.963 20.708 29.9825C20.708 29.9825 22.872 32.5045 23.4908 33.6391C24.1096 34.7738 24.3159 34.89 24.3159 34.89L24.4141 34.7672L24.4664 34.7536L24.4492 34.8225C24.4492 34.8225 24.7173 34.9346 26.2864 34.6976C27.8555 34.4607 31.9355 34.6866 31.9355 34.6866C30.2597 33.9389 28.8435 33.611 27.5338 33.5937C28.0203 33.3405 28.4932 33.0468 28.8962 32.7122C30.6484 31.2573 32.2593 27.9657 32.2593 27.9657C30.4225 28.9246 28.1794 30.5307 26.5404 31.9861Z" fill="#22792B"/>
<path fill-rule="evenodd" clip-rule="evenodd" d="M26.5404 31.9861L29.2996 26.3789C26.8569 29.2838 25.711 31.5666 25.1679 32.9803C25.1665 32.74 25.1628 32.446 25.1556 32.0887C25.1257 30.6129 25.4854 27.3491 25.4854 27.3491C23.8466 29.2134 23.9289 31.3988 24.2711 33.3091C23.6044 32.0324 22.5502 30.963 20.708 29.9825C20.708 29.9825 22.872 32.5045 23.4908 33.6391C24.1096 34.7738 24.3159 34.89 24.3159 34.89L24.4141 34.7672L24.4664 34.7536L24.4492 34.8225C24.4492 34.8225 24.7173 34.9346 26.2864 34.6976C27.8555 34.4607 31.9355 34.6866 31.9355 34.6866C30.2597 33.9389 28.8435 33.611 27.5338 33.5937C28.0203 33.3405 28.4932 33.0468 28.8962 32.7122C30.6484 31.2573 32.2593 27.9657 32.2593 27.9657C30.4225 28.9246 28.1794 30.5307 26.5404 31.9861Z" fill="#22792B"/>
<path fill-rule="evenodd" clip-rule="evenodd" d="M21.5531 22.0115L24.3123 16.4043C21.8696 19.3092 20.7237 21.592 20.1806 23.0057C20.1792 22.7654 20.1755 22.4714 20.1683 22.1141C20.1384 20.6383 20.4981 17.3745 20.4981 17.3745C18.8593 19.2388 18.9416 21.4242 19.2838 23.3345C18.6171 22.0578 17.5629 20.9884 15.7207 20.0079C15.7207 20.0079 17.8847 22.5299 18.5035 23.6645C19.1223 24.7992 19.3286 24.9154 19.3286 24.9154L19.4268 24.7926L19.4791 24.779L19.4619 24.8479C19.4619 24.8479 19.73 24.96 21.2991 24.723C22.8682 24.4861 26.9482 24.712 26.9482 24.712C25.2724 23.9643 23.8562 23.6363 22.5464 23.6191C23.033 23.3658 23.5059 23.0722 23.9089 22.7375C25.6611 21.2827 27.272 17.9911 27.272 17.9911C25.4352 18.95 23.1921 20.5561 21.5531 22.0115Z" fill="#22792B"/>
<path fill-rule="evenodd" clip-rule="evenodd" d="M21.5531 22.0115L24.3123 16.4043C21.8696 19.3092 20.7237 21.592 20.1806 23.0057C20.1792 22.7654 20.1755 22.4714 20.1683 22.1141C20.1384 20.6383 20.4981 17.3745 20.4981 17.3745C18.8593 19.2388 18.9416 21.4242 19.2838 23.3345C18.6171 22.0578 17.5629 20.9884 15.7207 20.0079C15.7207 20.0079 17.8847 22.5299 18.5035 23.6645C19.1223 24.7992 19.3286 24.9154 19.3286 24.9154L19.4268 24.7926L19.4791 24.779L19.4619 24.8479C19.4619 24.8479 19.73 24.96 21.2991 24.723C22.8682 24.4861 26.9482 24.712 26.9482 24.712C25.2724 23.9643 23.8562 23.6363 22.5464 23.6191C23.033 23.3658 23.5059 23.0722 23.9089 22.7375C25.6611 21.2827 27.272 17.9911 27.272 17.9911C25.4352 18.95 23.1921 20.5561 21.5531 22.0115Z" fill="#22792B"/>
<path fill-rule="evenodd" clip-rule="evenodd" d="M17.8123 12.0364L20.5715 6.4292C18.1289 9.33405 16.983 11.6169 16.4399 13.0306C16.4385 12.7903 16.4348 12.4963 16.4275 12.139C16.3977 10.6632 16.7573 7.3994 16.7573 7.3994C15.1186 9.26369 15.2008 11.4491 15.5431 13.3594C14.8764 12.0827 13.8221 11.0133 11.98 10.0328C11.98 10.0328 14.144 12.5548 14.7628 13.6894C15.3815 14.8241 15.5878 14.9403 15.5878 14.9403L15.6861 14.8175L15.7383 14.8039L15.7212 14.8728C15.7212 14.8728 15.9892 14.9849 17.5583 14.7479C19.1275 14.511 23.2075 14.7369 23.2075 14.7369C21.5317 13.9892 20.1155 13.6612 18.8057 13.644C19.2923 13.3907 19.7652 13.0971 20.1682 12.7624C21.9204 11.3076 23.5312 8.01598 23.5312 8.01598C21.6945 8.97492 19.4514 10.581 17.8123 12.0364Z" fill="#22792B"/>
<path fill-rule="evenodd" clip-rule="evenodd" d="M17.8123 12.0364L20.5715 6.4292C18.1289 9.33405 16.983 11.6169 16.4399 13.0306C16.4385 12.7903 16.4348 12.4963 16.4275 12.139C16.3977 10.6632 16.7573 7.3994 16.7573 7.3994C15.1186 9.26369 15.2008 11.4491 15.5431 13.3594C14.8764 12.0827 13.8221 11.0133 11.98 10.0328C11.98 10.0328 14.144 12.5548 14.7628 13.6894C15.3815 14.8241 15.5878 14.9403 15.5878 14.9403L15.6861 14.8175L15.7383 14.8039L15.7212 14.8728C15.7212 14.8728 15.9892 14.9849 17.5583 14.7479C19.1275 14.511 23.2075 14.7369 23.2075 14.7369C21.5317 13.9892 20.1155 13.6612 18.8057 13.644C19.2923 13.3907 19.7652 13.0971 20.1682 12.7624C21.9204 11.3076 23.5312 8.01598 23.5312 8.01598C21.6945 8.97492 19.4514 10.581 17.8123 12.0364Z" fill="#22792B"/>
<path fill-rule="evenodd" clip-rule="evenodd" d="M21.5531 17.0237L24.3123 11.4165C21.8696 14.3214 20.7237 16.6042 20.1806 18.0179C20.1792 17.7776 20.1755 17.4836 20.1683 17.1263C20.1384 15.6505 20.4981 12.3867 20.4981 12.3867C18.8593 14.251 18.9416 16.4364 19.2838 18.3467C18.6171 17.07 17.5629 16.0006 15.7207 15.0201C15.7207 15.0201 17.8847 17.5421 18.5035 18.6767C19.1223 19.8114 19.3286 19.9276 19.3286 19.9276L19.4268 19.8048L19.4791 19.7912L19.4619 19.8601C19.4619 19.8601 19.73 19.9722 21.2991 19.7352C22.8682 19.4983 26.9482 19.7242 26.9482 19.7242C25.2724 18.9765 23.8562 18.6486 22.5464 18.6313C23.033 18.378 23.5059 18.0844 23.9089 17.7498C25.6611 16.2949 27.272 13.0033 27.272 13.0033C25.4352 13.9622 23.1921 15.5683 21.5531 17.0237Z" fill="#22792B"/>
<path fill-rule="evenodd" clip-rule="evenodd" d="M21.5531 17.0237L24.3123 11.4165C21.8696 14.3214 20.7237 16.6042 20.1806 18.0179C20.1792 17.7776 20.1755 17.4836 20.1683 17.1263C20.1384 15.6505 20.4981 12.3867 20.4981 12.3867C18.8593 14.251 18.9416 16.4364 19.2838 18.3467C18.6171 17.07 17.5629 16.0006 15.7207 15.0201C15.7207 15.0201 17.8847 17.5421 18.5035 18.6767C19.1223 19.8114 19.3286 19.9276 19.3286 19.9276L19.4268 19.8048L19.4791 19.7912L19.4619 19.8601C19.4619 19.8601 19.73 19.9722 21.2991 19.7352C22.8682 19.4983 26.9482 19.7242 26.9482 19.7242C25.2724 18.9765 23.8562 18.6486 22.5464 18.6313C23.033 18.378 23.5059 18.0844 23.9089 17.7498C25.6611 16.2949 27.272 13.0033 27.272 13.0033C25.4352 13.9622 23.1921 15.5683 21.5531 17.0237Z" fill="#22792B"/>
<path fill-rule="evenodd" clip-rule="evenodd" d="M30.7874 14.0237L33.5466 8.4165C31.104 11.3214 29.9581 13.6042 29.415 15.0179C29.4136 14.7776 29.4099 14.4836 29.4026 14.1263C29.3728 12.6505 29.7324 9.38671 29.7324 9.38671C28.0937 11.251 28.1759 13.4364 28.5182 15.3467C27.8515 14.07 26.7972 13.0006 24.9551 12.0201C24.9551 12.0201 27.1191 14.5421 27.7378 15.6767C28.3566 16.8114 28.5629 16.9276 28.5629 16.9276L28.6612 16.8048L28.7134 16.7912L28.6963 16.8601C28.6963 16.8601 28.9643 16.9722 30.5334 16.7352C32.1026 16.4983 36.1826 16.7242 36.1826 16.7242C34.5068 15.9765 33.0906 15.6486 31.7808 15.6313C32.2674 15.378 32.7403 15.0844 33.1433 14.7498C34.8954 13.2949 36.5063 10.0033 36.5063 10.0033C34.6696 10.9622 32.4265 12.5683 30.7874 14.0237Z" fill="#22792B"/>
<path fill-rule="evenodd" clip-rule="evenodd" d="M30.7874 14.0237L33.5466 8.4165C31.104 11.3214 29.9581 13.6042 29.415 15.0179C29.4136 14.7776 29.4099 14.4836 29.4026 14.1263C29.3728 12.6505 29.7324 9.38671 29.7324 9.38671C28.0937 11.251 28.1759 13.4364 28.5182 15.3467C27.8515 14.07 26.7972 13.0006 24.9551 12.0201C24.9551 12.0201 27.1191 14.5421 27.7378 15.6767C28.3566 16.8114 28.5629 16.9276 28.5629 16.9276L28.6612 16.8048L28.7134 16.7912L28.6963 16.8601C28.6963 16.8601 28.9643 16.9722 30.5334 16.7352C32.1026 16.4983 36.1826 16.7242 36.1826 16.7242C34.5068 15.9765 33.0906 15.6486 31.7808 15.6313C32.2674 15.378 32.7403 15.0844 33.1433 14.7498C34.8954 13.2949 36.5063 10.0033 36.5063 10.0033C34.6696 10.9622 32.4265 12.5683 30.7874 14.0237Z" fill="#22792B"/>
<path fill-rule="evenodd" clip-rule="evenodd" d="M17.8123 23.258L20.5715 17.6509C18.1289 20.5557 16.983 22.8386 16.4399 24.2523C16.4385 24.0119 16.4348 23.718 16.4275 23.3607C16.3977 21.8849 16.7573 18.6211 16.7573 18.6211C15.1186 20.4854 15.2008 22.6708 15.5431 24.581C14.8764 23.3044 13.8221 22.235 11.98 21.2545C11.98 21.2545 14.144 23.7765 14.7628 24.9111C15.3815 26.0458 15.5878 26.162 15.5878 26.162L15.6861 26.0392L15.7383 26.0256L15.7212 26.0945C15.7212 26.0945 15.9892 26.2066 17.5583 25.9696C19.1275 25.7326 23.2075 25.9585 23.2075 25.9585C21.5317 25.2109 20.1155 24.8829 18.8057 24.8657C19.2923 24.6124 19.7652 24.3187 20.1682 23.9841C21.9204 22.5293 23.5312 19.2377 23.5312 19.2377C21.6945 20.1966 19.4514 21.8027 17.8123 23.258Z" fill="#22792B"/>
<path fill-rule="evenodd" clip-rule="evenodd" d="M17.8123 23.258L20.5715 17.6509C18.1289 20.5557 16.983 22.8386 16.4399 24.2523C16.4385 24.0119 16.4348 23.718 16.4275 23.3607C16.3977 21.8849 16.7573 18.6211 16.7573 18.6211C15.1186 20.4854 15.2008 22.6708 15.5431 24.581C14.8764 23.3044 13.8221 22.235 11.98 21.2545C11.98 21.2545 14.144 23.7765 14.7628 24.9111C15.3815 26.0458 15.5878 26.162 15.5878 26.162L15.6861 26.0392L15.7383 26.0256L15.7212 26.0945C15.7212 26.0945 15.9892 26.2066 17.5583 25.9696C19.1275 25.7326 23.2075 25.9585 23.2075 25.9585C21.5317 25.2109 20.1155 24.8829 18.8057 24.8657C19.2923 24.6124 19.7652 24.3187 20.1682 23.9841C21.9204 22.5293 23.5312 19.2377 23.5312 19.2377C21.6945 20.1966 19.4514 21.8027 17.8123 23.258Z" fill="#22792B"/>
<path fill-rule="evenodd" clip-rule="evenodd" d="M26.8123 19.258L29.5715 13.6509C27.1289 16.5557 25.983 18.8386 25.4399 20.2523C25.4385 20.0119 25.4348 19.718 25.4275 19.3607C25.3977 17.8849 25.7573 14.6211 25.7573 14.6211C24.1186 16.4854 24.2008 18.6708 24.5431 20.581C23.8764 19.3044 22.8221 18.235 20.98 17.2545C20.98 17.2545 23.144 19.7765 23.7628 20.9111C24.3815 22.0458 24.5878 22.162 24.5878 22.162L24.6861 22.0392L24.7383 22.0256L24.7212 22.0945C24.7212 22.0945 24.9892 22.2066 26.5583 21.9696C28.1275 21.7326 32.2075 21.9585 32.2075 21.9585C30.5317 21.2109 29.1155 20.8829 27.8057 20.8657C28.2923 20.6124 28.7652 20.3187 29.1682 19.9841C30.9204 18.5293 32.5312 15.2377 32.5312 15.2377C30.6945 16.1966 28.4514 17.8027 26.8123 19.258Z" fill="#22792B"/>
<path fill-rule="evenodd" clip-rule="evenodd" d="M26.8123 19.258L29.5715 13.6509C27.1289 16.5557 25.983 18.8386 25.4399 20.2523C25.4385 20.0119 25.4348 19.718 25.4275 19.3607C25.3977 17.8849 25.7573 14.6211 25.7573 14.6211C24.1186 16.4854 24.2008 18.6708 24.5431 20.581C23.8764 19.3044 22.8221 18.235 20.98 17.2545C20.98 17.2545 23.144 19.7765 23.7628 20.9111C24.3815 22.0458 24.5878 22.162 24.5878 22.162L24.6861 22.0392L24.7383 22.0256L24.7212 22.0945C24.7212 22.0945 24.9892 22.2066 26.5583 21.9696C28.1275 21.7326 32.2075 21.9585 32.2075 21.9585C30.5317 21.2109 29.1155 20.8829 27.8057 20.8657C28.2923 20.6124 28.7652 20.3187 29.1682 19.9841C30.9204 18.5293 32.5312 15.2377 32.5312 15.2377C30.6945 16.1966 28.4514 17.8027 26.8123 19.258Z" fill="#22792B"/>
<path fill-rule="evenodd" clip-rule="evenodd" d="M8.83235 14.6072L11.5916 9C9.14888 11.9049 8.00299 14.1877 7.45994 15.6014C7.45849 15.3611 7.45479 15.0671 7.44757 14.7098C7.41774 13.234 7.77735 9.9702 7.77735 9.9702C6.1386 11.8345 6.22086 14.0199 6.56312 15.9302C5.89642 14.6535 4.84215 13.5841 3 12.6036C3 12.6036 5.16399 15.1256 5.78277 16.2602C6.40155 17.3949 6.60785 17.5111 6.60785 17.5111L6.70608 17.3883L6.75837 17.3747L6.74119 17.4436C6.74119 17.4436 7.00925 17.5557 8.57836 17.3187C10.1475 17.0818 14.2275 17.3077 14.2275 17.3077C12.5517 16.56 11.1355 16.232 9.82575 16.2148C10.3123 15.9615 10.7852 15.6679 11.1882 15.3332C12.9404 13.8784 14.5513 10.5868 14.5513 10.5868C12.7145 11.5457 10.4714 13.1518 8.83235 14.6072Z" fill="#22792B"/>
<path fill-rule="evenodd" clip-rule="evenodd" d="M8.83235 14.6072L11.5916 9C9.14888 11.9049 8.00299 14.1877 7.45994 15.6014C7.45849 15.3611 7.45479 15.0671 7.44757 14.7098C7.41774 13.234 7.77735 9.9702 7.77735 9.9702C6.1386 11.8345 6.22086 14.0199 6.56312 15.9302C5.89642 14.6535 4.84215 13.5841 3 12.6036C3 12.6036 5.16399 15.1256 5.78277 16.2602C6.40155 17.3949 6.60785 17.5111 6.60785 17.5111L6.70608 17.3883L6.75837 17.3747L6.74119 17.4436C6.74119 17.4436 7.00925 17.5557 8.57836 17.3187C10.1475 17.0818 14.2275 17.3077 14.2275 17.3077C12.5517 16.56 11.1355 16.232 9.82575 16.2148C10.3123 15.9615 10.7852 15.6679 11.1882 15.3332C12.9404 13.8784 14.5513 10.5868 14.5513 10.5868C12.7145 11.5457 10.4714 13.1518 8.83235 14.6072Z" fill="#22792B"/>
<path fill-rule="evenodd" clip-rule="evenodd" d="M19.8323 32.6072L22.5916 27C20.1489 29.9049 19.003 32.1877 18.4599 33.6014C18.4585 33.3611 18.4548 33.0671 18.4476 32.7098C18.4177 31.234 18.7774 27.9702 18.7774 27.9702C17.1386 29.8345 17.2209 32.0199 17.5631 33.9302C16.8964 32.6535 15.8421 31.5841 14 30.6036C14 30.6036 16.164 33.1256 16.7828 34.2602C17.4016 35.3949 17.6078 35.5111 17.6078 35.5111L17.7061 35.3883L17.7584 35.3747L17.7412 35.4436C17.7412 35.4436 18.0093 35.5557 19.5784 35.3187C21.1475 35.0818 25.2275 35.3077 25.2275 35.3077C23.5517 34.56 22.1355 34.232 20.8257 34.2148C21.3123 33.9615 21.7852 33.6679 22.1882 33.3332C23.9404 31.8784 25.5513 28.5868 25.5513 28.5868C23.7145 29.5457 21.4714 31.1518 19.8323 32.6072Z" fill="#22792B"/>
<path fill-rule="evenodd" clip-rule="evenodd" d="M19.8323 32.6072L22.5916 27C20.1489 29.9049 19.003 32.1877 18.4599 33.6014C18.4585 33.3611 18.4548 33.0671 18.4476 32.7098C18.4177 31.234 18.7774 27.9702 18.7774 27.9702C17.1386 29.8345 17.2209 32.0199 17.5631 33.9302C16.8964 32.6535 15.8421 31.5841 14 30.6036C14 30.6036 16.164 33.1256 16.7828 34.2602C17.4016 35.3949 17.6078 35.5111 17.6078 35.5111L17.7061 35.3883L17.7584 35.3747L17.7412 35.4436C17.7412 35.4436 18.0093 35.5557 19.5784 35.3187C21.1475 35.0818 25.2275 35.3077 25.2275 35.3077C23.5517 34.56 22.1355 34.232 20.8257 34.2148C21.3123 33.9615 21.7852 33.6679 22.1882 33.3332C23.9404 31.8784 25.5513 28.5868 25.5513 28.5868C23.7145 29.5457 21.4714 31.1518 19.8323 32.6072Z" fill="#22792B"/>
<path fill-rule="evenodd" clip-rule="evenodd" d="M12.8323 29.6072L15.5916 24C13.1489 26.9049 12.003 29.1877 11.4599 30.6014C11.4585 30.3611 11.4548 30.0671 11.4476 29.7098C11.4177 28.234 11.7774 24.9702 11.7774 24.9702C10.1386 26.8345 10.2209 29.0199 10.5631 30.9302C9.89642 29.6535 8.84215 28.5841 7 27.6036C7 27.6036 9.16399 30.1256 9.78277 31.2602C10.4016 32.3949 10.6078 32.5111 10.6078 32.5111L10.7061 32.3883L10.7584 32.3747L10.7412 32.4436C10.7412 32.4436 11.0093 32.5557 12.5784 32.3187C14.1475 32.0818 18.2275 32.3077 18.2275 32.3077C16.5517 31.56 15.1355 31.232 13.8257 31.2148C14.3123 30.9615 14.7852 30.6679 15.1882 30.3332C16.9404 28.8784 18.5513 25.5868 18.5513 25.5868C16.7145 26.5457 14.4714 28.1518 12.8323 29.6072Z" fill="#22792B"/>
<path fill-rule="evenodd" clip-rule="evenodd" d="M12.8323 29.6072L15.5916 24C13.1489 26.9049 12.003 29.1877 11.4599 30.6014C11.4585 30.3611 11.4548 30.0671 11.4476 29.7098C11.4177 28.234 11.7774 24.9702 11.7774 24.9702C10.1386 26.8345 10.2209 29.0199 10.5631 30.9302C9.89642 29.6535 8.84215 28.5841 7 27.6036C7 27.6036 9.16399 30.1256 9.78277 31.2602C10.4016 32.3949 10.6078 32.5111 10.6078 32.5111L10.7061 32.3883L10.7584 32.3747L10.7412 32.4436C10.7412 32.4436 11.0093 32.5557 12.5784 32.3187C14.1475 32.0818 18.2275 32.3077 18.2275 32.3077C16.5517 31.56 15.1355 31.232 13.8257 31.2148C14.3123 30.9615 14.7852 30.6679 15.1882 30.3332C16.9404 28.8784 18.5513 25.5868 18.5513 25.5868C16.7145 26.5457 14.4714 28.1518 12.8323 29.6072Z" fill="#22792B"/>
<path fill-rule="evenodd" clip-rule="evenodd" d="M29.8323 29.6072L32.5916 24C30.1489 26.9049 29.003 29.1877 28.4599 30.6014C28.4585 30.3611 28.4548 30.0671 28.4476 29.7098C28.4177 28.234 28.7774 24.9702 28.7774 24.9702C27.1386 26.8345 27.2209 29.0199 27.5631 30.9302C26.8964 29.6535 25.8421 28.5841 24 27.6036C24 27.6036 26.164 30.1256 26.7828 31.2602C27.4016 32.3949 27.6078 32.5111 27.6078 32.5111L27.7061 32.3883L27.7584 32.3747L27.7412 32.4436C27.7412 32.4436 28.0093 32.5557 29.5784 32.3187C31.1475 32.0818 35.2275 32.3077 35.2275 32.3077C33.5517 31.56 32.1355 31.232 30.8257 31.2148C31.3123 30.9615 31.7852 30.6679 32.1882 30.3332C33.9404 28.8784 35.5513 25.5868 35.5513 25.5868C33.7145 26.5457 31.4714 28.1518 29.8323 29.6072Z" fill="#22792B"/>
<path fill-rule="evenodd" clip-rule="evenodd" d="M29.8323 29.6072L32.5916 24C30.1489 26.9049 29.003 29.1877 28.4599 30.6014C28.4585 30.3611 28.4548 30.0671 28.4476 29.7098C28.4177 28.234 28.7774 24.9702 28.7774 24.9702C27.1386 26.8345 27.2209 29.0199 27.5631 30.9302C26.8964 29.6535 25.8421 28.5841 24 27.6036C24 27.6036 26.164 30.1256 26.7828 31.2602C27.4016 32.3949 27.6078 32.5111 27.6078 32.5111L27.7061 32.3883L27.7584 32.3747L27.7412 32.4436C27.7412 32.4436 28.0093 32.5557 29.5784 32.3187C31.1475 32.0818 35.2275 32.3077 35.2275 32.3077C33.5517 31.56 32.1355 31.232 30.8257 31.2148C31.3123 30.9615 31.7852 30.6679 32.1882 30.3332C33.9404 28.8784 35.5513 25.5868 35.5513 25.5868C33.7145 26.5457 31.4714 28.1518 29.8323 29.6072Z" fill="#22792B"/>
<path fill-rule="evenodd" clip-rule="evenodd" d="M26.8323 25.6072L29.5916 20C27.1489 22.9049 26.003 25.1877 25.4599 26.6014C25.4585 26.3611 25.4548 26.0671 25.4476 25.7098C25.4177 24.234 25.7774 20.9702 25.7774 20.9702C24.1386 22.8345 24.2209 25.0199 24.5631 26.9302C23.8964 25.6535 22.8421 24.5841 21 23.6036C21 23.6036 23.164 26.1256 23.7828 27.2602C24.4016 28.3949 24.6078 28.5111 24.6078 28.5111L24.7061 28.3883L24.7584 28.3747L24.7412 28.4436C24.7412 28.4436 25.0093 28.5557 26.5784 28.3187C28.1475 28.0818 32.2275 28.3077 32.2275 28.3077C30.5517 27.56 29.1355 27.232 27.8257 27.2148C28.3123 26.9615 28.7852 26.6679 29.1882 26.3332C30.9404 24.8784 32.5513 21.5868 32.5513 21.5868C30.7145 22.5457 28.4714 24.1518 26.8323 25.6072Z" fill="#22792B"/>
<path fill-rule="evenodd" clip-rule="evenodd" d="M26.8323 25.6072L29.5916 20C27.1489 22.9049 26.003 25.1877 25.4599 26.6014C25.4585 26.3611 25.4548 26.0671 25.4476 25.7098C25.4177 24.234 25.7774 20.9702 25.7774 20.9702C24.1386 22.8345 24.2209 25.0199 24.5631 26.9302C23.8964 25.6535 22.8421 24.5841 21 23.6036C21 23.6036 23.164 26.1256 23.7828 27.2602C24.4016 28.3949 24.6078 28.5111 24.6078 28.5111L24.7061 28.3883L24.7584 28.3747L24.7412 28.4436C24.7412 28.4436 25.0093 28.5557 26.5784 28.3187C28.1475 28.0818 32.2275 28.3077 32.2275 28.3077C30.5517 27.56 29.1355 27.232 27.8257 27.2148C28.3123 26.9615 28.7852 26.6679 29.1882 26.3332C30.9404 24.8784 32.5513 21.5868 32.5513 21.5868C30.7145 22.5457 28.4714 24.1518 26.8323 25.6072Z" fill="#22792B"/>
<path fill-rule="evenodd" clip-rule="evenodd" d="M8.83235 25.6072L11.5916 20C9.14888 22.9049 8.00299 25.1877 7.45994 26.6014C7.45849 26.3611 7.45479 26.0671 7.44757 25.7098C7.41774 24.234 7.77735 20.9702 7.77735 20.9702C6.1386 22.8345 6.22086 25.0199 6.56312 26.9302C5.89642 25.6535 4.84215 24.5841 3 23.6036C3 23.6036 5.16399 26.1256 5.78277 27.2602C6.40155 28.3949 6.60785 28.5111 6.60785 28.5111L6.70608 28.3883L6.75837 28.3747L6.74119 28.4436C6.74119 28.4436 7.00925 28.5557 8.57836 28.3187C10.1475 28.0818 14.2275 28.3077 14.2275 28.3077C12.5517 27.56 11.1355 27.232 9.82575 27.2148C10.3123 26.9615 10.7852 26.6679 11.1882 26.3332C12.9404 24.8784 14.5513 21.5868 14.5513 21.5868C12.7145 22.5457 10.4714 24.1518 8.83235 25.6072Z" fill="#22792B"/>
<path fill-rule="evenodd" clip-rule="evenodd" d="M8.83235 25.6072L11.5916 20C9.14888 22.9049 8.00299 25.1877 7.45994 26.6014C7.45849 26.3611 7.45479 26.0671 7.44757 25.7098C7.41774 24.234 7.77735 20.9702 7.77735 20.9702C6.1386 22.8345 6.22086 25.0199 6.56312 26.9302C5.89642 25.6535 4.84215 24.5841 3 23.6036C3 23.6036 5.16399 26.1256 5.78277 27.2602C6.40155 28.3949 6.60785 28.5111 6.60785 28.5111L6.70608 28.3883L6.75837 28.3747L6.74119 28.4436C6.74119 28.4436 7.00925 28.5557 8.57836 28.3187C10.1475 28.0818 14.2275 28.3077 14.2275 28.3077C12.5517 27.56 11.1355 27.232 9.82575 27.2148C10.3123 26.9615 10.7852 26.6679 11.1882 26.3332C12.9404 24.8784 14.5513 21.5868 14.5513 21.5868C12.7145 22.5457 10.4714 24.1518 8.83235 25.6072Z" fill="#22792B"/>
<path fill-rule="evenodd" clip-rule="evenodd" d="M22.8323 13.6072L25.5916 8C23.1489 10.9049 22.003 13.1877 21.4599 14.6014C21.4585 14.3611 21.4548 14.0671 21.4476 13.7098C21.4177 12.234 21.7774 8.9702 21.7774 8.9702C20.1386 10.8345 20.2209 13.0199 20.5631 14.9302C19.8964 13.6535 18.8421 12.5841 17 11.6036C17 11.6036 19.164 14.1256 19.7828 15.2602C20.4016 16.3949 20.6078 16.5111 20.6078 16.5111L20.7061 16.3883L20.7584 16.3747L20.7412 16.4436C20.7412 16.4436 21.0093 16.5557 22.5784 16.3187C24.1475 16.0818 28.2275 16.3077 28.2275 16.3077C26.5517 15.56 25.1355 15.232 23.8257 15.2148C24.3123 14.9615 24.7852 14.6679 25.1882 14.3332C26.9404 12.8784 28.5513 9.58678 28.5513 9.58678C26.7145 10.5457 24.4714 12.1518 22.8323 13.6072Z" fill="#22792B"/>
<path fill-rule="evenodd" clip-rule="evenodd" d="M22.8323 13.6072L25.5916 8C23.1489 10.9049 22.003 13.1877 21.4599 14.6014C21.4585 14.3611 21.4548 14.0671 21.4476 13.7098C21.4177 12.234 21.7774 8.9702 21.7774 8.9702C20.1386 10.8345 20.2209 13.0199 20.5631 14.9302C19.8964 13.6535 18.8421 12.5841 17 11.6036C17 11.6036 19.164 14.1256 19.7828 15.2602C20.4016 16.3949 20.6078 16.5111 20.6078 16.5111L20.7061 16.3883L20.7584 16.3747L20.7412 16.4436C20.7412 16.4436 21.0093 16.5557 22.5784 16.3187C24.1475 16.0818 28.2275 16.3077 28.2275 16.3077C26.5517 15.56 25.1355 15.232 23.8257 15.2148C24.3123 14.9615 24.7852 14.6679 25.1882 14.3332C26.9404 12.8784 28.5513 9.58678 28.5513 9.58678C26.7145 10.5457 24.4714 12.1518 22.8323 13.6072Z" fill="#22792B"/>
<path fill-rule="evenodd" clip-rule="evenodd" d="M31.8323 6.60717L34.5916 1C32.1489 3.90485 31.003 6.18769 30.4599 7.60137C30.4585 7.36107 30.4548 7.06713 30.4476 6.70981C30.4177 5.23401 30.7774 1.9702 30.7774 1.9702C29.1386 3.83449 29.2209 6.01987 29.5631 7.93015C28.8964 6.65348 27.8421 5.5841 26 4.60363C26 4.60363 28.164 7.1256 28.7828 8.26024C29.4016 9.39487 29.6078 9.51109 29.6078 9.51109L29.7061 9.38833L29.7584 9.37471L29.7412 9.44358C29.7412 9.44358 30.0093 9.55571 31.5784 9.31873C33.1475 9.08175 37.2275 9.30767 37.2275 9.30767C35.5517 8.56004 34.1355 8.23205 32.8257 8.21481C33.3123 7.96154 33.7852 7.66785 34.1882 7.33325C35.9404 5.87841 37.5513 2.58678 37.5513 2.58678C35.7145 3.54572 33.4714 5.15181 31.8323 6.60717Z" fill="#22792B"/>
<path fill-rule="evenodd" clip-rule="evenodd" d="M31.8323 6.60717L34.5916 1C32.1489 3.90485 31.003 6.18769 30.4599 7.60137C30.4585 7.36107 30.4548 7.06713 30.4476 6.70981C30.4177 5.23401 30.7774 1.9702 30.7774 1.9702C29.1386 3.83449 29.2209 6.01987 29.5631 7.93015C28.8964 6.65348 27.8421 5.5841 26 4.60363C26 4.60363 28.164 7.1256 28.7828 8.26024C29.4016 9.39487 29.6078 9.51109 29.6078 9.51109L29.7061 9.38833L29.7584 9.37471L29.7412 9.44358C29.7412 9.44358 30.0093 9.55571 31.5784 9.31873C33.1475 9.08175 37.2275 9.30767 37.2275 9.30767C35.5517 8.56004 34.1355 8.23205 32.8257 8.21481C33.3123 7.96154 33.7852 7.66785 34.1882 7.33325C35.9404 5.87841 37.5513 2.58678 37.5513 2.58678C35.7145 3.54572 33.4714 5.15181 31.8323 6.60717Z" fill="#22792B"/>
<path fill-rule="evenodd" clip-rule="evenodd" d="M27.8323 5.60717L30.5916 0C28.1489 2.90485 27.003 5.18769 26.4599 6.60137C26.4585 6.36107 26.4548 6.06713 26.4476 5.70981C26.4177 4.23401 26.7774 0.970204 26.7774 0.970204C25.1386 2.83449 25.2209 5.01987 25.5631 6.93015C24.8964 5.65348 23.8421 4.5841 22 3.60363C22 3.60363 24.164 6.1256 24.7828 7.26024C25.4016 8.39487 25.6078 8.51109 25.6078 8.51109L25.7061 8.38833L25.7584 8.37471L25.7412 8.44358C25.7412 8.44358 26.0093 8.55571 27.5784 8.31873C29.1475 8.08175 33.2275 8.30767 33.2275 8.30767C31.5517 7.56004 30.1355 7.23205 28.8257 7.21481C29.3123 6.96154 29.7852 6.66785 30.1882 6.33325C31.9404 4.87841 33.5513 1.58678 33.5513 1.58678C31.7145 2.54572 29.4714 4.15181 27.8323 5.60717Z" fill="#22792B"/>
<path fill-rule="evenodd" clip-rule="evenodd" d="M27.8323 5.60717L30.5916 0C28.1489 2.90485 27.003 5.18769 26.4599 6.60137C26.4585 6.36107 26.4548 6.06713 26.4476 5.70981C26.4177 4.23401 26.7774 0.970204 26.7774 0.970204C25.1386 2.83449 25.2209 5.01987 25.5631 6.93015C24.8964 5.65348 23.8421 4.5841 22 3.60363C22 3.60363 24.164 6.1256 24.7828 7.26024C25.4016 8.39487 25.6078 8.51109 25.6078 8.51109L25.7061 8.38833L25.7584 8.37471L25.7412 8.44358C25.7412 8.44358 26.0093 8.55571 27.5784 8.31873C29.1475 8.08175 33.2275 8.30767 33.2275 8.30767C31.5517 7.56004 30.1355 7.23205 28.8257 7.21481C29.3123 6.96154 29.7852 6.66785 30.1882 6.33325C31.9404 4.87841 33.5513 1.58678 33.5513 1.58678C31.7145 2.54572 29.4714 4.15181 27.8323 5.60717Z" fill="#22792B"/>
<path fill-rule="evenodd" clip-rule="evenodd" d="M18.8323 5.60717L21.5916 0C19.1489 2.90485 18.003 5.18769 17.4599 6.60137C17.4585 6.36107 17.4548 6.06713 17.4476 5.70981C17.4177 4.23401 17.7774 0.970204 17.7774 0.970204C16.1386 2.83449 16.2209 5.01987 16.5631 6.93015C15.8964 5.65348 14.8421 4.5841 13 3.60363C13 3.60363 15.164 6.1256 15.7828 7.26024C16.4016 8.39487 16.6078 8.51109 16.6078 8.51109L16.7061 8.38833L16.7584 8.37471L16.7412 8.44358C16.7412 8.44358 17.0093 8.55571 18.5784 8.31873C20.1475 8.08175 24.2275 8.30767 24.2275 8.30767C22.5517 7.56004 21.1355 7.23205 19.8257 7.21481C20.3123 6.96154 20.7852 6.66785 21.1882 6.33325C22.9404 4.87841 24.5513 1.58678 24.5513 1.58678C22.7145 2.54572 20.4714 4.15181 18.8323 5.60717Z" fill="#22792B"/>
<path fill-rule="evenodd" clip-rule="evenodd" d="M18.8323 5.60717L21.5916 0C19.1489 2.90485 18.003 5.18769 17.4599 6.60137C17.4585 6.36107 17.4548 6.06713 17.4476 5.70981C17.4177 4.23401 17.7774 0.970204 17.7774 0.970204C16.1386 2.83449 16.2209 5.01987 16.5631 6.93015C15.8964 5.65348 14.8421 4.5841 13 3.60363C13 3.60363 15.164 6.1256 15.7828 7.26024C16.4016 8.39487 16.6078 8.51109 16.6078 8.51109L16.7061 8.38833L16.7584 8.37471L16.7412 8.44358C16.7412 8.44358 17.0093 8.55571 18.5784 8.31873C20.1475 8.08175 24.2275 8.30767 24.2275 8.30767C22.5517 7.56004 21.1355 7.23205 19.8257 7.21481C20.3123 6.96154 20.7852 6.66785 21.1882 6.33325C22.9404 4.87841 24.5513 1.58678 24.5513 1.58678C22.7145 2.54572 20.4714 4.15181 18.8323 5.60717Z" fill="#22792B"/>
<path fill-rule="evenodd" clip-rule="evenodd" d="M7.83235 6.60717L10.5916 1C8.14888 3.90485 7.00299 6.18769 6.45994 7.60137C6.45849 7.36107 6.45479 7.06713 6.44757 6.70981C6.41774 5.23401 6.77735 1.9702 6.77735 1.9702C5.1386 3.83449 5.22086 6.01987 5.56312 7.93015C4.89642 6.65348 3.84215 5.5841 2 4.60363C2 4.60363 4.16399 7.1256 4.78277 8.26024C5.40155 9.39487 5.60785 9.51109 5.60785 9.51109L5.70608 9.38833L5.75837 9.37471L5.74119 9.44358C5.74119 9.44358 6.00925 9.55571 7.57836 9.31873C9.14747 9.08175 13.2275 9.30767 13.2275 9.30767C11.5517 8.56004 10.1355 8.23205 8.82575 8.21481C9.31233 7.96154 9.78522 7.66785 10.1882 7.33325C11.9404 5.87841 13.5513 2.58678 13.5513 2.58678C11.7145 3.54572 9.47138 5.15181 7.83235 6.60717Z" fill="#22792B"/>
<path fill-rule="evenodd" clip-rule="evenodd" d="M7.83235 6.60717L10.5916 1C8.14888 3.90485 7.00299 6.18769 6.45994 7.60137C6.45849 7.36107 6.45479 7.06713 6.44757 6.70981C6.41774 5.23401 6.77735 1.9702 6.77735 1.9702C5.1386 3.83449 5.22086 6.01987 5.56312 7.93015C4.89642 6.65348 3.84215 5.5841 2 4.60363C2 4.60363 4.16399 7.1256 4.78277 8.26024C5.40155 9.39487 5.60785 9.51109 5.60785 9.51109L5.70608 9.38833L5.75837 9.37471L5.74119 9.44358C5.74119 9.44358 6.00925 9.55571 7.57836 9.31873C9.14747 9.08175 13.2275 9.30767 13.2275 9.30767C11.5517 8.56004 10.1355 8.23205 8.82575 8.21481C9.31233 7.96154 9.78522 7.66785 10.1882 7.33325C11.9404 5.87841 13.5513 2.58678 13.5513 2.58678C11.7145 3.54572 9.47138 5.15181 7.83235 6.60717Z" fill="#22792B"/>
<path fill-rule="evenodd" clip-rule="evenodd" d="M5.83235 29.6072L8.59157 24C6.14888 26.9049 5.00299 29.1877 4.45994 30.6014C4.45849 30.3611 4.45479 30.0671 4.44757 29.7098C4.41774 28.234 4.77735 24.9702 4.77735 24.9702C3.1386 26.8345 3.22086 29.0199 3.56312 30.9302C2.89642 29.6535 1.84215 28.5841 0 27.6036C0 27.6036 2.16399 30.1256 2.78277 31.2602C3.40155 32.3949 3.60785 32.5111 3.60785 32.5111L3.70608 32.3883L3.75837 32.3747L3.74119 32.4436C3.74119 32.4436 4.00925 32.5557 5.57836 32.3187C7.14747 32.0818 11.2275 32.3077 11.2275 32.3077C9.55172 31.56 8.13552 31.232 6.82575 31.2148C7.31233 30.9615 7.78522 30.6679 8.18821 30.3332C9.94037 28.8784 11.5513 25.5868 11.5513 25.5868C9.71454 26.5457 7.47138 28.1518 5.83235 29.6072Z" fill="#22792B"/>
<path fill-rule="evenodd" clip-rule="evenodd" d="M5.83235 29.6072L8.59157 24C6.14888 26.9049 5.00299 29.1877 4.45994 30.6014C4.45849 30.3611 4.45479 30.0671 4.44757 29.7098C4.41774 28.234 4.77735 24.9702 4.77735 24.9702C3.1386 26.8345 3.22086 29.0199 3.56312 30.9302C2.89642 29.6535 1.84215 28.5841 0 27.6036C0 27.6036 2.16399 30.1256 2.78277 31.2602C3.40155 32.3949 3.60785 32.5111 3.60785 32.5111L3.70608 32.3883L3.75837 32.3747L3.74119 32.4436C3.74119 32.4436 4.00925 32.5557 5.57836 32.3187C7.14747 32.0818 11.2275 32.3077 11.2275 32.3077C9.55172 31.56 8.13552 31.232 6.82575 31.2148C7.31233 30.9615 7.78522 30.6679 8.18821 30.3332C9.94037 28.8784 11.5513 25.5868 11.5513 25.5868C9.71454 26.5457 7.47138 28.1518 5.83235 29.6072Z" fill="#22792B"/>
<path fill-rule="evenodd" clip-rule="evenodd" d="M6.59016 24.5051L9.34938 18.8979C6.90669 21.8028 5.7608 24.0856 5.21775 25.4993C5.2163 25.259 5.2126 24.9651 5.20538 24.6078C5.17555 23.132 5.53517 19.8682 5.53517 19.8682C3.89641 21.7324 3.97867 23.9178 4.32093 25.8281C3.65423 24.5514 2.59996 23.4821 0.757812 22.5016C0.757812 22.5016 2.9218 25.0236 3.54058 26.1582C4.15936 27.2928 4.36566 27.409 4.36566 27.409L4.46389 27.2863L4.51618 27.2727L4.49901 27.3415C4.49901 27.3415 4.76707 27.4537 6.33618 27.2167C7.90529 26.9797 11.9853 27.2056 11.9853 27.2056C10.3095 26.458 8.89334 26.13 7.58356 26.1128C8.07014 25.8595 8.54303 25.5658 8.94603 25.2312C10.6982 23.7764 12.3091 20.4847 12.3091 20.4847C10.4723 21.4437 8.22919 23.0498 6.59016 24.5051Z" fill="#22792B"/>
<path fill-rule="evenodd" clip-rule="evenodd" d="M6.59016 24.5051L9.34938 18.8979C6.90669 21.8028 5.7608 24.0856 5.21775 25.4993C5.2163 25.259 5.2126 24.9651 5.20538 24.6078C5.17555 23.132 5.53517 19.8682 5.53517 19.8682C3.89641 21.7324 3.97867 23.9178 4.32093 25.8281C3.65423 24.5514 2.59996 23.4821 0.757812 22.5016C0.757812 22.5016 2.9218 25.0236 3.54058 26.1582C4.15936 27.2928 4.36566 27.409 4.36566 27.409L4.46389 27.2863L4.51618 27.2727L4.49901 27.3415C4.49901 27.3415 4.76707 27.4537 6.33618 27.2167C7.90529 26.9797 11.9853 27.2056 11.9853 27.2056C10.3095 26.458 8.89334 26.13 7.58356 26.1128C8.07014 25.8595 8.54303 25.5658 8.94603 25.2312C10.6982 23.7764 12.3091 20.4847 12.3091 20.4847C10.4723 21.4437 8.22919 23.0498 6.59016 24.5051Z" fill="#22792B"/>
<path fill-rule="evenodd" clip-rule="evenodd" d="M16.5653 7.04858L19.3245 1.44141C16.8818 4.34626 15.7359 6.6291 15.1929 8.04278C15.1914 7.80247 15.1877 7.50853 15.1805 7.15121C15.1506 5.67542 15.5103 2.41161 15.5103 2.41161C13.8715 4.2759 13.9538 6.46128 14.296 8.37156C13.6293 7.09489 12.5751 6.02551 10.7329 5.04503C10.7329 5.04503 12.8969 7.56701 13.5157 8.70165C14.1345 9.83628 14.3408 9.95249 14.3408 9.95249L14.439 9.82973L14.4913 9.81612L14.4741 9.88499C14.4741 9.88499 14.7422 9.99712 16.3113 9.76014C17.8804 9.52316 21.9604 9.74908 21.9604 9.74908C20.2846 9.00144 18.8684 8.67346 17.5587 8.65622C18.0452 8.40295 18.5181 8.10926 18.9211 7.77465C20.6733 6.31982 22.2842 3.02818 22.2842 3.02818C20.4474 3.98712 18.2043 5.59322 16.5653 7.04858Z" fill="#22792B"/>
<path fill-rule="evenodd" clip-rule="evenodd" d="M16.5653 7.04858L19.3245 1.44141C16.8818 4.34626 15.7359 6.6291 15.1929 8.04278C15.1914 7.80247 15.1877 7.50853 15.1805 7.15121C15.1506 5.67542 15.5103 2.41161 15.5103 2.41161C13.8715 4.2759 13.9538 6.46128 14.296 8.37156C13.6293 7.09489 12.5751 6.02551 10.7329 5.04503C10.7329 5.04503 12.8969 7.56701 13.5157 8.70165C14.1345 9.83628 14.3408 9.95249 14.3408 9.95249L14.439 9.82973L14.4913 9.81612L14.4741 9.88499C14.4741 9.88499 14.7422 9.99712 16.3113 9.76014C17.8804 9.52316 21.9604 9.74908 21.9604 9.74908C20.2846 9.00144 18.8684 8.67346 17.5587 8.65622C18.0452 8.40295 18.5181 8.10926 18.9211 7.77465C20.6733 6.31982 22.2842 3.02818 22.2842 3.02818C20.4474 3.98712 18.2043 5.59322 16.5653 7.04858Z" fill="#22792B"/>
<path fill-rule="evenodd" clip-rule="evenodd" d="M31.7874 22.0115L34.5466 16.4043C32.104 19.3092 30.9581 21.592 30.415 23.0057C30.4136 22.7654 30.4099 22.4714 30.4026 22.1141C30.3728 20.6383 30.7324 17.3745 30.7324 17.3745C29.0937 19.2388 29.1759 21.4242 29.5182 23.3344C28.8515 22.0578 27.7972 20.9884 25.9551 20.0079C25.9551 20.0079 28.1191 22.5299 28.7378 23.6645C29.3566 24.7992 29.5629 24.9154 29.5629 24.9154L29.6612 24.7926L29.7134 24.779L29.6963 24.8479C29.6963 24.8479 29.9643 24.96 31.5334 24.723C33.1026 24.4861 37.1826 24.712 37.1826 24.712C35.5068 23.9643 34.0906 23.6363 32.7808 23.6191C33.2674 23.3658 33.7403 23.0722 34.1433 22.7375C35.8954 21.2827 37.5063 17.9911 37.5063 17.9911C35.6696 18.95 33.4265 20.5561 31.7874 22.0115Z" fill="#22792B"/>
<path fill-rule="evenodd" clip-rule="evenodd" d="M31.7874 22.0115L34.5466 16.4043C32.104 19.3092 30.9581 21.592 30.415 23.0057C30.4136 22.7654 30.4099 22.4714 30.4026 22.1141C30.3728 20.6383 30.7324 17.3745 30.7324 17.3745C29.0937 19.2388 29.1759 21.4242 29.5182 23.3344C28.8515 22.0578 27.7972 20.9884 25.9551 20.0079C25.9551 20.0079 28.1191 22.5299 28.7378 23.6645C29.3566 24.7992 29.5629 24.9154 29.5629 24.9154L29.6612 24.7926L29.7134 24.779L29.6963 24.8479C29.6963 24.8479 29.9643 24.96 31.5334 24.723C33.1026 24.4861 37.1826 24.712 37.1826 24.712C35.5068 23.9643 34.0906 23.6363 32.7808 23.6191C33.2674 23.3658 33.7403 23.0722 34.1433 22.7375C35.8954 21.2827 37.5063 17.9911 37.5063 17.9911C35.6696 18.95 33.4265 20.5561 31.7874 22.0115Z" fill="#22792B"/>
<path fill-rule="evenodd" clip-rule="evenodd" d="M7.09651 19.5173L9.85573 13.9102C7.41304 16.815 6.26715 19.0979 5.7241 20.5115C5.72265 20.2712 5.71895 19.9773 5.71173 19.62C5.6819 18.1442 6.04151 14.8804 6.04151 14.8804C4.40276 16.7446 4.48502 18.93 4.82728 20.8403C4.16058 19.5636 3.10631 18.4943 1.26416 17.5138C1.26416 17.5138 3.42815 20.0358 4.04693 21.1704C4.66571 22.305 4.87201 22.4212 4.87201 22.4212L4.97024 22.2985L5.02253 22.2849L5.00535 22.3537C5.00535 22.3537 5.27341 22.4659 6.84252 22.2289C8.41164 21.9919 12.4916 22.2178 12.4916 22.2178C10.8159 21.4702 9.39968 21.1422 8.08991 21.125C8.57649 20.8717 9.04938 20.578 9.45237 20.2434C11.2045 18.7886 12.8154 15.4969 12.8154 15.4969C10.9787 16.4559 8.73554 18.062 7.09651 19.5173Z" fill="#22792B"/>
<path fill-rule="evenodd" clip-rule="evenodd" d="M7.09651 19.5173L9.85573 13.9102C7.41304 16.815 6.26715 19.0979 5.7241 20.5115C5.72265 20.2712 5.71895 19.9773 5.71173 19.62C5.6819 18.1442 6.04151 14.8804 6.04151 14.8804C4.40276 16.7446 4.48502 18.93 4.82728 20.8403C4.16058 19.5636 3.10631 18.4943 1.26416 17.5138C1.26416 17.5138 3.42815 20.0358 4.04693 21.1704C4.66571 22.305 4.87201 22.4212 4.87201 22.4212L4.97024 22.2985L5.02253 22.2849L5.00535 22.3537C5.00535 22.3537 5.27341 22.4659 6.84252 22.2289C8.41164 21.9919 12.4916 22.2178 12.4916 22.2178C10.8159 21.4702 9.39968 21.1422 8.08991 21.125C8.57649 20.8717 9.04938 20.578 9.45237 20.2434C11.2045 18.7886 12.8154 15.4969 12.8154 15.4969C10.9787 16.4559 8.73554 18.062 7.09651 19.5173Z" fill="#22792B"/>
<path fill-rule="evenodd" clip-rule="evenodd" d="M20.306 28.2458L23.0652 22.6387C20.6225 25.5435 19.4766 27.8264 18.9336 29.24C18.9321 28.9997 18.9284 28.7058 18.9212 28.3485C18.8914 26.8727 19.251 23.6089 19.251 23.6089C17.6122 25.4732 17.6945 27.6585 18.0367 29.5688C17.3701 28.2922 16.3158 27.2228 14.4736 26.2423C14.4736 26.2423 16.6376 28.7643 17.2564 29.8989C17.8752 31.0335 18.0815 31.1498 18.0815 31.1498L18.1797 31.027L18.232 31.0134L18.2148 31.0823C18.2148 31.0823 18.4829 31.1944 20.052 30.9574C21.6211 30.7204 25.7011 30.9463 25.7011 30.9463C24.0254 30.1987 22.6092 29.8707 21.2994 29.8535C21.786 29.6002 22.2589 29.3065 22.6618 28.9719C24.414 27.5171 26.0249 24.2254 26.0249 24.2254C24.1882 25.1844 21.945 26.7905 20.306 28.2458Z" fill="#22792B"/>
<path fill-rule="evenodd" clip-rule="evenodd" d="M20.306 28.2458L23.0652 22.6387C20.6225 25.5435 19.4766 27.8264 18.9336 29.24C18.9321 28.9997 18.9284 28.7058 18.9212 28.3485C18.8914 26.8727 19.251 23.6089 19.251 23.6089C17.6122 25.4732 17.6945 27.6585 18.0367 29.5688C17.3701 28.2922 16.3158 27.2228 14.4736 26.2423C14.4736 26.2423 16.6376 28.7643 17.2564 29.8989C17.8752 31.0335 18.0815 31.1498 18.0815 31.1498L18.1797 31.027L18.232 31.0134L18.2148 31.0823C18.2148 31.0823 18.4829 31.1944 20.052 30.9574C21.6211 30.7204 25.7011 30.9463 25.7011 30.9463C24.0254 30.1987 22.6092 29.8707 21.2994 29.8535C21.786 29.6002 22.2589 29.3065 22.6618 28.9719C24.414 27.5171 26.0249 24.2254 26.0249 24.2254C24.1882 25.1844 21.945 26.7905 20.306 28.2458Z" fill="#22792B"/>
<path fill-rule="evenodd" clip-rule="evenodd" d="M14.0716 33.2331L16.8308 27.626C14.3881 30.5308 13.2422 32.8137 12.6992 34.2273C12.6977 33.987 12.694 33.6931 12.6868 33.3358C12.657 31.86 13.0166 28.5962 13.0166 28.5962C11.3779 30.4605 11.4601 32.6458 11.8024 34.5561C11.1357 33.2795 10.0814 32.2101 8.23926 31.2296C8.23926 31.2296 10.4032 33.7516 11.022 34.8862C11.6408 36.0209 11.8471 36.1371 11.8471 36.1371L11.9453 36.0143L11.9976 36.0007L11.9805 36.0696C11.9805 36.0696 12.2485 36.1817 13.8176 35.9447C15.3867 35.7077 19.4667 35.9336 19.4667 35.9336C17.791 35.186 16.3748 34.858 15.065 34.8408C15.5516 34.5875 16.0245 34.2938 16.4275 33.9592C18.1796 32.5044 19.7905 29.2128 19.7905 29.2128C17.9538 30.1717 15.7106 31.7778 14.0716 33.2331Z" fill="#22792B"/>
<path fill-rule="evenodd" clip-rule="evenodd" d="M14.0716 33.2331L16.8308 27.626C14.3881 30.5308 13.2422 32.8137 12.6992 34.2273C12.6977 33.987 12.694 33.6931 12.6868 33.3358C12.657 31.86 13.0166 28.5962 13.0166 28.5962C11.3779 30.4605 11.4601 32.6458 11.8024 34.5561C11.1357 33.2795 10.0814 32.2101 8.23926 31.2296C8.23926 31.2296 10.4032 33.7516 11.022 34.8862C11.6408 36.0209 11.8471 36.1371 11.8471 36.1371L11.9453 36.0143L11.9976 36.0007L11.9805 36.0696C11.9805 36.0696 12.2485 36.1817 13.8176 35.9447C15.3867 35.7077 19.4667 35.9336 19.4667 35.9336C17.791 35.186 16.3748 34.858 15.065 34.8408C15.5516 34.5875 16.0245 34.2938 16.4275 33.9592C18.1796 32.5044 19.7905 29.2128 19.7905 29.2128C17.9538 30.1717 15.7106 31.7778 14.0716 33.2331Z" fill="#22792B"/>
<path fill-rule="evenodd" clip-rule="evenodd" d="M6.59016 10.7893L9.34938 5.18213C6.90669 8.08698 5.7608 10.3698 5.21775 11.7835C5.2163 11.5432 5.2126 11.2493 5.20538 10.8919C5.17555 9.41614 5.53517 6.15233 5.53517 6.15233C3.89641 8.01662 3.97867 10.202 4.32093 12.1123C3.65423 10.8356 2.59996 9.76623 0.757812 8.78576C0.757812 8.78576 2.9218 11.3077 3.54058 12.4424C4.15936 13.577 4.36566 13.6932 4.36566 13.6932L4.46389 13.5705L4.51618 13.5568L4.49901 13.6257C4.49901 13.6257 4.76707 13.7378 6.33618 13.5009C7.90529 13.2639 11.9853 13.4898 11.9853 13.4898C10.3095 12.7422 8.89334 12.4142 7.58356 12.3969C8.07014 12.1437 8.54303 11.85 8.94603 11.5154C10.6982 10.0605 12.3091 6.76891 12.3091 6.76891C10.4723 7.72784 8.22919 9.33394 6.59016 10.7893Z" fill="#22792B"/>
<path fill-rule="evenodd" clip-rule="evenodd" d="M6.59016 10.7893L9.34938 5.18213C6.90669 8.08698 5.7608 10.3698 5.21775 11.7835C5.2163 11.5432 5.2126 11.2493 5.20538 10.8919C5.17555 9.41614 5.53517 6.15233 5.53517 6.15233C3.89641 8.01662 3.97867 10.202 4.32093 12.1123C3.65423 10.8356 2.59996 9.76623 0.757812 8.78576C0.757812 8.78576 2.9218 11.3077 3.54058 12.4424C4.15936 13.577 4.36566 13.6932 4.36566 13.6932L4.46389 13.5705L4.51618 13.5568L4.49901 13.6257C4.49901 13.6257 4.76707 13.7378 6.33618 13.5009C7.90529 13.2639 11.9853 13.4898 11.9853 13.4898C10.3095 12.7422 8.89334 12.4142 7.58356 12.3969C8.07014 12.1437 8.54303 11.85 8.94603 11.5154C10.6982 10.0605 12.3091 6.76891 12.3091 6.76891C10.4723 7.72784 8.22919 9.33394 6.59016 10.7893Z" fill="#22792B"/>
<path fill-rule="evenodd" clip-rule="evenodd" d="M7.34309 33.9861L10.1023 28.3789C7.65962 31.2838 6.51373 33.5666 5.97068 34.9803C5.96923 34.74 5.96553 34.446 5.95831 34.0887C5.92848 32.6129 6.2881 29.3491 6.2881 29.3491C4.64934 31.2134 4.7316 33.3988 5.07386 35.3091C4.40716 34.0324 3.35289 32.963 1.51074 31.9825C1.51074 31.9825 3.67473 34.5045 4.29351 35.6391C4.91229 36.7738 5.11859 36.89 5.11859 36.89L5.21682 36.7672L5.26911 36.7536L5.25194 36.8225C5.25194 36.8225 5.51999 36.9346 7.08911 36.6976C8.65822 36.4607 12.7382 36.6866 12.7382 36.6866C11.0625 35.9389 9.64627 35.611 8.33649 35.5937C8.82307 35.3405 9.29596 35.0468 9.69896 34.7122C11.4511 33.2573 13.062 29.9657 13.062 29.9657C11.2253 30.9246 8.98212 32.5307 7.34309 33.9861Z" fill="#22792B"/>
<path fill-rule="evenodd" clip-rule="evenodd" d="M7.34309 33.9861L10.1023 28.3789C7.65962 31.2838 6.51373 33.5666 5.97068 34.9803C5.96923 34.74 5.96553 34.446 5.95831 34.0887C5.92848 32.6129 6.2881 29.3491 6.2881 29.3491C4.64934 31.2134 4.7316 33.3988 5.07386 35.3091C4.40716 34.0324 3.35289 32.963 1.51074 31.9825C1.51074 31.9825 3.67473 34.5045 4.29351 35.6391C4.91229 36.7738 5.11859 36.89 5.11859 36.89L5.21682 36.7672L5.26911 36.7536L5.25194 36.8225C5.25194 36.8225 5.51999 36.9346 7.08911 36.6976C8.65822 36.4607 12.7382 36.6866 12.7382 36.6866C11.0625 35.9389 9.64627 35.611 8.33649 35.5937C8.82307 35.3405 9.29596 35.0468 9.69896 34.7122C11.4511 33.2573 13.062 29.9657 13.062 29.9657C11.2253 30.9246 8.98212 32.5307 7.34309 33.9861Z" fill="#22792B"/>
<path fill-rule="evenodd" clip-rule="evenodd" d="M8.83723 28.9988L11.5965 23.3916C9.15376 26.2965 8.00787 28.5793 7.46482 29.993C7.46337 29.7527 7.45967 29.4587 7.45245 29.1014C7.42262 27.6256 7.78224 24.3618 7.78224 24.3618C6.14348 26.2261 6.22574 28.4115 6.568 30.3218C5.9013 29.0451 4.84703 27.9757 3.00488 26.9952C3.00488 26.9952 5.16887 29.5172 5.78765 30.6518C6.40643 31.7865 6.61273 31.9027 6.61273 31.9027L6.71096 31.7799L6.76325 31.7663L6.74608 31.8352C6.74608 31.8352 7.01414 31.9473 8.58325 31.7103C10.1524 31.4734 14.2324 31.6993 14.2324 31.6993C12.5566 30.9516 11.1404 30.6237 9.83063 30.6064C10.3172 30.3531 10.7901 30.0595 11.1931 29.7248C12.9453 28.27 14.5561 24.9784 14.5561 24.9784C12.7194 25.9373 10.4763 27.5434 8.83723 28.9988Z" fill="#22792B"/>
<path fill-rule="evenodd" clip-rule="evenodd" d="M8.83723 28.9988L11.5965 23.3916C9.15376 26.2965 8.00787 28.5793 7.46482 29.993C7.46337 29.7527 7.45967 29.4587 7.45245 29.1014C7.42262 27.6256 7.78224 24.3618 7.78224 24.3618C6.14348 26.2261 6.22574 28.4115 6.568 30.3218C5.9013 29.0451 4.84703 27.9757 3.00488 26.9952C3.00488 26.9952 5.16887 29.5172 5.78765 30.6518C6.40643 31.7865 6.61273 31.9027 6.61273 31.9027L6.71096 31.7799L6.76325 31.7663L6.74608 31.8352C6.74608 31.8352 7.01414 31.9473 8.58325 31.7103C10.1524 31.4734 14.2324 31.6993 14.2324 31.6993C12.5566 30.9516 11.1404 30.6237 9.83063 30.6064C10.3172 30.3531 10.7901 30.0595 11.1931 29.7248C12.9453 28.27 14.5561 24.9784 14.5561 24.9784C12.7194 25.9373 10.4763 27.5434 8.83723 28.9988Z" fill="#22792B"/>
<path fill-rule="evenodd" clip-rule="evenodd" d="M20.306 34.4802L23.0652 28.873C20.6225 31.7779 19.4766 34.0607 18.9336 35.4744C18.9321 35.2341 18.9284 34.9402 18.9212 34.5829C18.8914 33.1071 19.251 29.8433 19.251 29.8433C17.6122 31.7075 17.6945 33.8929 18.0367 35.8032C17.3701 34.5265 16.3158 33.4571 14.4736 32.4767C14.4736 32.4767 16.6376 34.9987 17.2564 36.1333C17.8752 37.2679 18.0815 37.3841 18.0815 37.3841L18.1797 37.2614L18.232 37.2478L18.2148 37.3166C18.2148 37.3166 18.4829 37.4288 20.052 37.1918C21.6211 36.9548 25.7011 37.1807 25.7011 37.1807C24.0254 36.4331 22.6092 36.1051 21.2994 36.0879C21.786 35.8346 22.2589 35.5409 22.6618 35.2063C24.414 33.7515 26.0249 30.4598 26.0249 30.4598C24.1882 31.4188 21.945 33.0249 20.306 34.4802Z" fill="#22792B"/>
<path fill-rule="evenodd" clip-rule="evenodd" d="M20.306 34.4802L23.0652 28.873C20.6225 31.7779 19.4766 34.0607 18.9336 35.4744C18.9321 35.2341 18.9284 34.9402 18.9212 34.5829C18.8914 33.1071 19.251 29.8433 19.251 29.8433C17.6122 31.7075 17.6945 33.8929 18.0367 35.8032C17.3701 34.5265 16.3158 33.4571 14.4736 32.4767C14.4736 32.4767 16.6376 34.9987 17.2564 36.1333C17.8752 37.2679 18.0815 37.3841 18.0815 37.3841L18.1797 37.2614L18.232 37.2478L18.2148 37.3166C18.2148 37.3166 18.4829 37.4288 20.052 37.1918C21.6211 36.9548 25.7011 37.1807 25.7011 37.1807C24.0254 36.4331 22.6092 36.1051 21.2994 36.0879C21.786 35.8346 22.2589 35.5409 22.6618 35.2063C24.414 33.7515 26.0249 30.4598 26.0249 30.4598C24.1882 31.4188 21.945 33.0249 20.306 34.4802Z" fill="#22792B"/>
<path fill-rule="evenodd" clip-rule="evenodd" d="M30.2811 33.2331L33.0403 27.626C30.5976 30.5308 29.4517 32.8137 28.9087 34.2273C28.9072 33.987 28.9035 33.6931 28.8963 33.3358C28.8665 31.86 29.2261 28.5962 29.2261 28.5962C27.5873 30.4605 27.6696 32.6458 28.0118 34.5561C27.3452 33.2795 26.2909 32.2101 24.4487 31.2296C24.4487 31.2296 26.6127 33.7516 27.2315 34.8862C27.8503 36.0209 28.0566 36.1371 28.0566 36.1371L28.1548 36.0143L28.2071 36.0007L28.1899 36.0696C28.1899 36.0696 28.458 36.1817 30.0271 35.9447C31.5962 35.7077 35.6762 35.9336 35.6762 35.9336C34.0004 35.186 32.5843 34.858 31.2745 34.8408C31.7611 34.5875 32.234 34.2938 32.6369 33.9592C34.3891 32.5044 36 29.2128 36 29.2128C34.1633 30.1717 31.9201 31.7778 30.2811 33.2331Z" fill="#22792B"/>
<path fill-rule="evenodd" clip-rule="evenodd" d="M30.2811 33.2331L33.0403 27.626C30.5976 30.5308 29.4517 32.8137 28.9087 34.2273C28.9072 33.987 28.9035 33.6931 28.8963 33.3358C28.8665 31.86 29.2261 28.5962 29.2261 28.5962C27.5873 30.4605 27.6696 32.6458 28.0118 34.5561C27.3452 33.2795 26.2909 32.2101 24.4487 31.2296C24.4487 31.2296 26.6127 33.7516 27.2315 34.8862C27.8503 36.0209 28.0566 36.1371 28.0566 36.1371L28.1548 36.0143L28.2071 36.0007L28.1899 36.0696C28.1899 36.0696 28.458 36.1817 30.0271 35.9447C31.5962 35.7077 35.6762 35.9336 35.6762 35.9336C34.0004 35.186 32.5843 34.858 31.2745 34.8408C31.7611 34.5875 32.234 34.2938 32.6369 33.9592C34.3891 32.5044 36 29.2128 36 29.2128C34.1633 30.1717 31.9201 31.7778 30.2811 33.2331Z" fill="#22792B"/>
<path fill-rule="evenodd" clip-rule="evenodd" d="M7.83723 7.04858L10.5965 1.44141C8.15376 4.34626 7.00787 6.6291 6.46482 8.04278C6.46337 7.80247 6.45967 7.50853 6.45245 7.15121C6.42262 5.67542 6.78224 2.41161 6.78224 2.41161C5.14348 4.2759 5.22574 6.46128 5.568 8.37156C4.9013 7.09489 3.84703 6.02551 2.00488 5.04503C2.00488 5.04503 4.16887 7.56701 4.78765 8.70165C5.40643 9.83628 5.61273 9.95249 5.61273 9.95249L5.71096 9.82973L5.76325 9.81611L5.74608 9.88499C5.74608 9.88499 6.01414 9.99712 7.58325 9.76014C9.15236 9.52316 13.2324 9.74908 13.2324 9.74908C11.5566 9.00144 10.1404 8.67346 8.83063 8.65622C9.31721 8.40295 9.7901 8.10926 10.1931 7.77465C11.9453 6.31982 13.5561 3.02818 13.5561 3.02818C11.7194 3.98712 9.47626 5.59322 7.83723 7.04858Z" fill="#22792B"/>
<path fill-rule="evenodd" clip-rule="evenodd" d="M7.83723 7.04858L10.5965 1.44141C8.15376 4.34626 7.00787 6.6291 6.46482 8.04278C6.46337 7.80247 6.45967 7.50853 6.45245 7.15121C6.42262 5.67542 6.78224 2.41161 6.78224 2.41161C5.14348 4.2759 5.22574 6.46128 5.568 8.37156C4.9013 7.09489 3.84703 6.02551 2.00488 5.04503C2.00488 5.04503 4.16887 7.56701 4.78765 8.70165C5.40643 9.83628 5.61273 9.95249 5.61273 9.95249L5.71096 9.82973L5.76325 9.81611L5.74608 9.88499C5.74608 9.88499 6.01414 9.99712 7.58325 9.76014C9.15236 9.52316 13.2324 9.74908 13.2324 9.74908C11.5566 9.00144 10.1404 8.67346 8.83063 8.65622C9.31721 8.40295 9.7901 8.10926 10.1931 7.77465C11.9453 6.31982 13.5561 3.02818 13.5561 3.02818C11.7194 3.98712 9.47626 5.59322 7.83723 7.04858Z" fill="#22792B"/>
</svg>
