<svg width="108" height="108" viewBox="0 0 108 108" fill="none" xmlns="http://www.w3.org/2000/svg">
<path d="M9.25 58.25H101.75V92.3858L94.4067 98.75H16.0801L9.25 93.8713V58.25Z" fill="#F4F0F0" stroke="black" stroke-width="0.5"/>
<path d="M9.25 27.25H101.75V59.8858L94.4067 66.25H16.0982L9.25 59.891V27.25Z" fill="#A74628" stroke="black" stroke-width="0.5"/>
<circle cx="54.5" cy="54.5" r="8.5" fill="#EFEFEF"/>
<circle cx="54.5" cy="54.5" r="4.5" fill="#A74628"/>
<circle cx="54.5" cy="54.5" r="3.5" fill="#EFEFEF"/>
<line x1="58" y1="55.5" x2="64" y2="55.5" stroke="#A74628"/>
<line x1="45" y1="55.5" x2="51" y2="55.5" stroke="#A74628"/>
<path d="M82.9935 17.6378L82.9936 17.6378L83.0675 17.75H83.2021H94.4578L101.75 27.0861V59.0891L94.7948 47.3724L94.7221 47.25H94.5798H83.345C83.3112 47.1969 83.2658 47.1298 83.2068 47.0502C83.0556 46.8466 82.8155 46.5618 82.4529 46.2235C81.7274 45.5465 80.5134 44.657 78.5433 43.772C74.6049 42.0028 67.6413 40.25 55.5 40.25C43.3593 40.25 36.5177 42.0026 32.7013 43.7732C30.7919 44.6591 29.6384 45.5501 28.9584 46.2294C28.6185 46.5689 28.3975 46.8549 28.2599 47.0599C28.2098 47.1345 28.1708 47.1983 28.1411 47.25H16.4202H16.2779L16.2052 47.3724L9.25 59.0891V27.0861L16.5422 17.75H28.2926H28.4271L28.5012 17.6378L28.5012 17.6377L28.5012 17.6376L28.5018 17.6368L28.5049 17.6321L28.5189 17.6118C28.5316 17.5933 28.5512 17.5653 28.5778 17.5283C28.6312 17.4543 28.7128 17.3444 28.8239 17.2039C29.0462 16.9228 29.3867 16.5189 29.8559 16.0331C30.7944 15.0613 32.2478 13.7619 34.3007 12.4612C38.4043 9.86108 44.9126 7.25 54.5106 7.25C65.3514 7.25 72.48 9.86425 76.8916 12.4654C79.0984 13.7664 80.6278 15.0658 81.6036 16.0366C82.0915 16.5221 82.441 16.9254 82.6675 17.2059C82.7808 17.3461 82.8633 17.4556 82.917 17.5293C82.9438 17.5661 82.9635 17.594 82.9761 17.6123L82.9899 17.6324L82.9929 17.6369L82.9934 17.6376L82.9935 17.6378Z" fill="#D66F4F" stroke="black" stroke-width="0.5"/>
<line x1="28.25" y1="18" x2="28.25" y2="47" stroke="black" stroke-width="0.5"/>
<line x1="16.25" y1="18" x2="16.25" y2="47" stroke="black" stroke-width="0.5"/>
<line x1="83.25" y1="18" x2="83.25" y2="47" stroke="black" stroke-width="0.5"/>
<line x1="94.25" y1="18" x2="94.25" y2="47" stroke="black" stroke-width="0.5"/>
<line x1="16.25" y1="66" x2="16.25" y2="99" stroke="black" stroke-width="0.5"/>
<line x1="94.25" y1="66" x2="94.25" y2="99" stroke="black" stroke-width="0.5"/>
<rect x="68.25" y="74.25" width="19.5" height="14.5" fill="white" stroke="black" stroke-width="0.5"/>
<rect x="35.25" y="78.25" width="28.5" height="20.5" fill="url(#paint0_linear_232_449)" stroke="black" stroke-width="0.5"/>
<path d="M72.648 79.4H74.952C75.2613 79.4 75.4987 79.4853 75.664 79.656C75.8293 79.8213 75.912 80.056 75.912 80.36V81.84C75.912 82.144 75.8293 82.3813 75.664 82.552C75.4987 82.7173 75.2613 82.8 74.952 82.8H73.208V85H72.648V79.4ZM73.208 79.92V82.288H74.936C75.2133 82.288 75.352 82.144 75.352 81.856V80.352C75.352 80.064 75.2133 79.92 74.936 79.92H73.208ZM77.2982 85.024H77.1542C77.0689 85.024 76.9969 84.9973 76.9382 84.944C76.8795 84.8853 76.8502 84.8107 76.8502 84.72V84.576C76.8502 84.4853 76.8769 84.4133 76.9302 84.36C76.9889 84.3013 77.0635 84.272 77.1542 84.272H77.2982C77.3889 84.272 77.4609 84.3013 77.5142 84.36C77.5729 84.4133 77.6022 84.4853 77.6022 84.576V84.72C77.6022 84.8107 77.5729 84.8853 77.5142 84.944C77.4609 84.9973 77.3889 85.024 77.2982 85.024ZM79.7546 79.4H81.0906L81.8906 79.624L81.7466 80.112L81.0906 79.92H79.7706C79.4932 79.92 79.3546 80.064 79.3546 80.352V84.056C79.3546 84.344 79.4932 84.488 79.7706 84.488H81.1866L81.8426 84.296L81.9786 84.784L81.1866 85H79.7546C79.4399 85 79.1999 84.9173 79.0346 84.752C78.8746 84.5867 78.7946 84.3493 78.7946 84.04V80.36C78.7946 80.056 78.8746 79.8213 79.0346 79.656C79.1999 79.4853 79.4399 79.4 79.7546 79.4Z" fill="black"/>
<path d="M72.648 79.4V79.2H72.448V79.4H72.648ZM75.664 79.656L75.5203 79.7952L75.5226 79.7974L75.664 79.656ZM75.664 82.552L75.8054 82.6934L75.8076 82.6912L75.664 82.552ZM73.208 82.8V82.6H73.008V82.8H73.208ZM73.208 85V85.2H73.408V85H73.208ZM72.648 85H72.448V85.2H72.648V85ZM73.208 79.92V79.72H73.008V79.92H73.208ZM73.208 82.288H73.008V82.488H73.208V82.288ZM72.648 79.6H74.952V79.2H72.648V79.6ZM74.952 79.6C75.2243 79.6 75.4031 79.6742 75.5204 79.7952L75.8076 79.5168C75.5942 79.2965 75.2984 79.2 74.952 79.2V79.6ZM75.5226 79.7974C75.6401 79.9149 75.712 80.0924 75.712 80.36H76.112C76.112 80.0196 76.0186 79.7277 75.8054 79.5146L75.5226 79.7974ZM75.712 80.36V81.84H76.112V80.36H75.712ZM75.712 81.84C75.712 82.1072 75.6402 82.2891 75.5204 82.4128L75.8076 82.6912C76.0184 82.4736 76.112 82.1808 76.112 81.84H75.712ZM75.5226 82.4106C75.4057 82.5275 75.226 82.6 74.952 82.6V83C75.2966 83 75.5917 82.9072 75.8054 82.6934L75.5226 82.4106ZM74.952 82.6H73.208V83H74.952V82.6ZM73.008 82.8V85H73.408V82.8H73.008ZM73.208 84.8H72.648V85.2H73.208V84.8ZM72.848 85V79.4H72.448V85H72.848ZM73.008 79.92V82.288H73.408V79.92H73.008ZM73.208 82.488H74.936V82.088H73.208V82.488ZM74.936 82.488C75.1075 82.488 75.2723 82.4431 75.3921 82.3187C75.5105 82.1958 75.552 82.029 75.552 81.856H75.152C75.152 81.971 75.1242 82.0202 75.1039 82.0413C75.085 82.0609 75.0419 82.088 74.936 82.088V82.488ZM75.552 81.856V80.352H75.152V81.856H75.552ZM75.552 80.352C75.552 80.179 75.5105 80.0122 75.3921 79.8893C75.2723 79.7649 75.1075 79.72 74.936 79.72V80.12C75.0419 80.12 75.085 80.1471 75.1039 80.1667C75.1242 80.1878 75.152 80.237 75.152 80.352H75.552ZM74.936 79.72H73.208V80.12H74.936V79.72ZM76.9382 84.944L76.7966 85.0856L76.8037 85.092L76.9382 84.944ZM76.9302 84.36L76.7888 84.2186L76.7888 84.2186L76.9302 84.36ZM77.5142 84.36L77.3662 84.4945L77.3726 84.5016L77.3797 84.508L77.5142 84.36ZM77.5142 84.944L77.6556 85.0854L77.6556 85.0854L77.5142 84.944ZM77.2982 84.824H77.1542V85.224H77.2982V84.824ZM77.1542 84.824C77.1145 84.824 77.0916 84.8132 77.0727 84.796L76.8037 85.092C76.9021 85.1815 77.0232 85.224 77.1542 85.224V84.824ZM77.0796 84.8026C77.0621 84.7851 77.0502 84.763 77.0502 84.72H76.6502C76.6502 84.8583 76.6969 84.9856 76.7968 85.0854L77.0796 84.8026ZM77.0502 84.72V84.576H76.6502V84.72H77.0502ZM77.0502 84.576C77.0502 84.5269 77.0632 84.5099 77.0716 84.5014L76.7888 84.2186C76.6905 84.3168 76.6502 84.4438 76.6502 84.576H77.0502ZM77.0716 84.5014C77.0891 84.4839 77.1111 84.472 77.1542 84.472V84.072C77.0159 84.072 76.8886 84.1187 76.7888 84.2186L77.0716 84.5014ZM77.1542 84.472H77.2982V84.072H77.1542V84.472ZM77.2982 84.472C77.3414 84.472 77.3564 84.4837 77.3662 84.4945L77.6622 84.2255C77.5653 84.1189 77.4363 84.072 77.2982 84.072V84.472ZM77.3797 84.508C77.3904 84.5178 77.4022 84.5328 77.4022 84.576H77.8022C77.8022 84.4379 77.7553 84.3089 77.6487 84.212L77.3797 84.508ZM77.4022 84.576V84.72H77.8022V84.576H77.4022ZM77.4022 84.72C77.4022 84.763 77.3903 84.7851 77.3728 84.8026L77.6556 85.0854C77.7554 84.9856 77.8022 84.8583 77.8022 84.72H77.4022ZM77.3728 84.8026C77.3643 84.811 77.3473 84.824 77.2982 84.824V85.224C77.4304 85.224 77.5574 85.1837 77.6556 85.0854L77.3728 84.8026ZM81.0906 79.4L81.1445 79.2074L81.118 79.2H81.0906V79.4ZM81.8906 79.624L82.0824 79.6806L82.1398 79.4861L81.9445 79.4314L81.8906 79.624ZM81.7466 80.112L81.6904 80.3039L81.8819 80.36L81.9384 80.1686L81.7466 80.112ZM81.0906 79.92L81.1467 79.7281L81.1192 79.72H81.0906V79.92ZM81.1866 84.488V84.688H81.2152L81.2427 84.6799L81.1866 84.488ZM81.8426 84.296L82.0352 84.2423L81.9808 84.0471L81.7864 84.1041L81.8426 84.296ZM81.9786 84.784L82.0312 84.977L82.2252 84.924L82.1712 84.7303L81.9786 84.784ZM81.1866 85V85.2H81.2133L81.2392 85.193L81.1866 85ZM79.0346 84.752L78.8908 84.8911L78.8931 84.8934L79.0346 84.752ZM79.0346 79.656L78.8909 79.5168L78.8908 79.5169L79.0346 79.656ZM79.7546 79.6H81.0906V79.2H79.7546V79.6ZM81.0366 79.5926L81.8366 79.8166L81.9445 79.4314L81.1445 79.2074L81.0366 79.5926ZM81.6987 79.5674L81.5547 80.0554L81.9384 80.1686L82.0824 79.6806L81.6987 79.5674ZM81.8027 79.9201L81.1467 79.7281L81.0344 80.1119L81.6904 80.3039L81.8027 79.9201ZM81.0906 79.72H79.7706V80.12H81.0906V79.72ZM79.7706 79.72C79.5991 79.72 79.4342 79.7649 79.3145 79.8893C79.1961 80.0122 79.1546 80.179 79.1546 80.352H79.5546C79.5546 80.237 79.5824 80.1878 79.6026 80.1667C79.6215 80.1471 79.6647 80.12 79.7706 80.12V79.72ZM79.1546 80.352V84.056H79.5546V80.352H79.1546ZM79.1546 84.056C79.1546 84.229 79.1961 84.3958 79.3145 84.5187C79.4342 84.6431 79.5991 84.688 79.7706 84.688V84.288C79.6647 84.288 79.6215 84.2609 79.6026 84.2413C79.5824 84.2202 79.5546 84.171 79.5546 84.056H79.1546ZM79.7706 84.688H81.1866V84.288H79.7706V84.688ZM81.2427 84.6799L81.8987 84.4879L81.7864 84.1041L81.1304 84.2961L81.2427 84.6799ZM81.6499 84.3497L81.7859 84.8377L82.1712 84.7303L82.0352 84.2423L81.6499 84.3497ZM81.9259 84.591L81.1339 84.807L81.2392 85.193L82.0312 84.977L81.9259 84.591ZM81.1866 84.8H79.7546V85.2H81.1866V84.8ZM79.7546 84.8C79.4741 84.8 79.2923 84.7269 79.176 84.6106L78.8931 84.8934C79.1075 85.1078 79.4057 85.2 79.7546 85.2V84.8ZM79.1783 84.6129C79.0654 84.4963 78.9946 84.3158 78.9946 84.04H78.5946C78.5946 84.3829 78.6837 84.6771 78.8908 84.8911L79.1783 84.6129ZM78.9946 84.04V80.36H78.5946V84.04H78.9946ZM78.9946 80.36C78.9946 80.0907 79.0648 79.9124 79.1783 79.7951L78.8908 79.5169C78.6843 79.7303 78.5946 80.0213 78.5946 80.36H78.9946ZM79.1782 79.7952C79.2948 79.6748 79.4758 79.6 79.7546 79.6V79.2C79.404 79.2 79.105 79.2959 78.8909 79.5168L79.1782 79.7952Z" fill="black"/>
<defs>
<linearGradient id="paint0_linear_232_449" x1="49.5" y1="78" x2="49.5" y2="99" gradientUnits="userSpaceOnUse">
<stop stop-color="#8BD6DB"/>
<stop offset="1" stop-color="#8BD6DB" stop-opacity="0"/>
</linearGradient>
</defs>
</svg>
