<svg width="108" height="108" viewBox="0 0 108 108" fill="none" xmlns="http://www.w3.org/2000/svg">
<rect x="11.25" y="60.25" width="86.5" height="43.5" fill="#C28F5F" stroke="black" stroke-width="0.5"/>
<rect x="9.25" y="4.25" width="90.5" height="15.5" fill="#C23535" stroke="black" stroke-width="0.5"/>
<rect x="9.25" y="20.25" width="90.5" height="43.5" fill="#A63D3D" stroke="black" stroke-width="0.5"/>
<rect x="9.25" y="19.25" width="90.5" height="4.5" fill="#D64F4F" stroke="black" stroke-width="0.5"/>
<rect x="72.25" y="76.25" width="18.5" height="15.5" fill="url(#paint0_linear_232_471)" stroke="black" stroke-width="0.5"/>
<line x1="81.25" y1="76" x2="81.25" y2="92" stroke="black" stroke-width="0.5"/>
<line x1="91" y1="84.25" x2="72" y2="84.25" stroke="black" stroke-width="0.5"/>
<rect x="18.25" y="76.25" width="18.5" height="15.5" fill="url(#paint1_linear_232_471)" stroke="black" stroke-width="0.5"/>
<line x1="27.25" y1="76" x2="27.25" y2="92" stroke="black" stroke-width="0.5"/>
<line x1="37" y1="84.25" x2="18" y2="84.25" stroke="black" stroke-width="0.5"/>
<rect x="42.25" y="76.25" width="24.5" height="27.5" fill="#993939" stroke="black" stroke-width="0.5"/>
<rect x="45" y="79" width="19" height="10" fill="#7D2828"/>
<circle cx="62.5" cy="92.5" r="1.5" fill="#C28F5F"/>
<defs>
<linearGradient id="paint0_linear_232_471" x1="81.5" y1="76" x2="81.5" y2="92" gradientUnits="userSpaceOnUse">
<stop stop-color="#8BD6DB"/>
<stop offset="1" stop-color="white"/>
</linearGradient>
<linearGradient id="paint1_linear_232_471" x1="27.5" y1="76" x2="27.5" y2="92" gradientUnits="userSpaceOnUse">
<stop stop-color="#8BD6DB"/>
<stop offset="1" stop-color="white"/>
</linearGradient>
</defs>
</svg>
